<?xml version="1.0" standalone="no"?>
<!DOCTYPE svg PUBLIC "-//W3C//DTD SVG 1.1//EN" "http://www.w3.org/Graphics/SVG/1.1/DTD/svg11.dtd">
<svg xmlns="http://www.w3.org/2000/svg">
<metadata>Copyright (C) 2016 by original authors @ fontello.com</metadata>
<defs>
<font id="banchilefonts" horiz-adv-x="1000" >
<font-face font-family="banchilefonts" font-weight="400" font-stretch="normal" units-per-em="1000" ascent="850" descent="-150" />
<missing-glyph horiz-adv-x="1000" />
<glyph glyph-name="logotipo" unicode="&#xe800;" d="M2812 510l4-6 6 0-5 8c0 0 0-1 0-1-1 0-3-1-5-1z m7 22c0 2-1 4-5 8-2 1-5 1-8 1l-16 0 0-37 5 0 0 11 0 22 16 0c3 0 5 0 8-5z m-1427 75c25-5 42-13 47-17 4-4-2-7-5-9l-64-46c-3-2-5-4-6-7-1-3-1-13-1-13l0-122c0-9 0-10-3-16-2-7-10-14-10-21l73 51c4 3 7 7 7 11l0 133c0 5 0 9 9 17l92 73-8-4c-11-5-17 0-30 4-18 5-38 9-50 9-13 0-54-5-80-24l-36-31 6 3c13 8 46 11 59 9z m59-214c0-13 0-12-2-16-2-6-10-14-10-16l0-5 80 56c5 4 8 11 8 15l0 147c0 7 5 16 13 22 5 4 9 2 13-1l0-263c-18 11-39 18-60 18-46 0-67-9-93-22-22-11-41-26-57-45 23 12 37 17 63 20 31 4 50 1 79-10 19-7 31-13 46-25l122 86c3 2 5 5 7 6 2 3 2 24 2 40 0 14-4 48-29 59-13 5-26 6-38 8-3 1-6-1-9 2-2 0-3 1-1 7l58 40c5 4 15 14 15 31 0 4 0 15-13 34l-34 49c-6 8-11 16-21 16-8 0-14-3-21-9l-114-82c-4-4-4-12-4-17l0-145z m242-92l59-27c2-1 4-2 7-1 2 0 3 0 5 1l48 23 27-29 30 31-30 30 0 132c0 2 0 3-4 8l-60 29c-2 1-3 2-5 2-3 0-4-1-6-2l-63-32c1-5 8-1 10 1 6 1 10 5 15 5 1 1 3 1 5 1 2-1 3-1 6-2l54-25c2 0 3-1 6-8l0-31-33 16c0 0-4 2-6 2-2 0-7-2-7-2l-60-28c-2-1-2-2-3-8l0-77c0-2 1-3 5-9z m904 7l-17 20c-1 2 0 3 0 5l0 261-51-52 0-235 34-34 34 35z m-703-9l31-30 34 35-17 17 0 106 23 25 24-24 0-125 34-36 34 36-19 19 0 135-42 43-40-40-39 40-44-45 21-20 0-136z m792-25c2-1 8-2 10-2 2 0 6 1 8 3l57 39c2 2 3 6 3 6-2 4-8-1-9-2l-23-14c-1-1-2-1-8 0l-54 26c-1 0-1 1-2 6l0 18c0 2 0 3 3 7l93 64-65 75c-2 1-4 0-6-1l-65-30c-1-1-1-2-2-6l0-156c0-1 0-3 4-6l56-27z m152 249c0 20-16 36-35 36-19 0-34-16-34-36 0-20 15-35 34-35 19 0 35 15 35 35z m-683-248c4-2 6-3 9-2 4 0 9 2 9 2l56 43c-4 2-8 1-12-2l-18-11c0 0-3-1-9 0l-53 24c0 0-1 2-2 8l0 124c0 2 0 5 4 5l55-26c0 0 2 0 9 2l33 23-72 33c-2 1-4 2-7 2-3 0-4-1-7-2l-63-29c0 0-2-2-3-8l0-148c0-1 0-2 5-8l66-30z m173 29l-17 17c-1 0-1 1-2 7l0 98c0 2 0 3 3 8l18 18 16-17c0-1 1-3 1-5l0-209 51 51 0 183c0 2 0 4-2 9l-36 36-51-48 0 142-50-51 0-241 33-34 36 36z m108 136l0-137 34-35 36 36-17 18c-1 1-1 2-2 7l0 140-31 31-35-37 15-17c0-2 0-4 0-6z m56 119l-36 35-35-36 35-36 36 37z m-1369-371l1919 0 0-18-1919 0 0 18z m968-111l-56 0 0 25 63 0 0-13 13 6c0 7-2 13-5 15-3 3-8 5-16 5l-48 0c-8 0-13-2-16-5-3-3-4-8-4-17l0-8c0-8 1-14 4-17 3-3 8-4 16-4l56 0 0-28-66 0 0 15-14-6c0-9 2-14 4-17 3-3 9-5 17-5l52 0c8 0 14 2 16 5 3 3 5 8 5 17l0 10c0 9-2 14-5 17-3 3-8 5-16 5z m130 38l27 0 0-92-27 0 0 92z m206 0l-61 0c-9 0-14-2-17-5-3-3-4-8-4-17l0-48c0-8 1-14 4-17 3-3 8-5 17-5l61 0c8 0 14 2 17 5 2 3 4 8 4 17l0 48c0 9-2 14-4 17-3 3-9 5-17 5z m-529-56c7 0 12 1 15 4 3 3 4 7 4 14l0 20c0 6-1 11-4 14-3 3-8 4-15 4l-72 0 0-92 15 0 0 36 27 0 36-36 22 0-41 36 13 0z m-243 6l44 0 0 12-44 0 0 26 71 0 0 12-86 0 0-92 87 0 0 13-72 0 0 29z m987 0c0-6 0-11 0-14 1-3 1-6 1-9l-5 6c-2 2-3 4-5 6l-66 61-10 0 0-92 14 0 0 54 0 11-1 9c1-3 4-6 9-10l68-64 9 0 0 92-14 0 0-50z m379 12l-56 0 0 25 63 0 0-13 13 6c0 7-2 13-5 15-3 3-8 5-16 5l-48 0c-8 0-13-2-16-5-3-3-5-8-5-17l0-8c0-8 2-14 5-17 3-3 8-4 16-4l56 0 0-28-66 0 0 15-14-6c0-9 1-14 4-17 3-3 9-5 17-5l52 0c8 0 14 2 16 5 3 3 5 8 5 17l0 10c0 9-2 14-5 17-3 3-8 5-16 5z m-240-12l43 0 0 12-43 0 0 26 71 0 0 12-86 0 0-92 86 0 0 13-71 0 0 29z m-1286-27l-39 77-16 0 48-92 13 0 46 92-14 0-38-77z m-162 27c0-6 0-11 1-14 0-3 0-6 1-9l-6 6c-1 2-3 4-4 6l-67 61-9 0 0-92 13 0 0 54 0 11-1 9c2-3 4-6 9-10l69-64 8 0 0 92-14 0 0-50z m-210 50l28 0 0-92-28 0 0 92z m442 343c5-3 11-6 17-10 5-4 11-7 11-12l0-116c0-2-1-4-3-5-1-1-6 1-9 2l-16 8 0 133z m0 121l30-45c0 0 4-10 3-17 0-9-4-15-11-21l-22-15 0 98z m166-183l58-28c2-1 4-3 6-5 1-2 2-4 2-7l0-59-59 27c0 0-5 4-5 5-1 2-2 5-2 7l0 60z m937 67l2 3 47-55c1-1 2-2 0-6l-49-29 0 87z m-309-361l74 0 0-66-74 0 0 66z m-518-31l0 32 51 0c4 0 7-1 8-2 1-2 2-4 2-7l0-14c0-3-1-6-2-7-1-1-4-2-8-2l-51 0z m991 452c0-16-13-30-29-30-16 0-29 14-29 30 0 16 13 30 29 30 16 0 29-14 29-30z m-2344 327c-269 0-488-221-488-494 0-273 219-495 488-495 270 0 488 222 488 495 0 273-218 494-488 494z m0-968c-258 0-467 212-467 474 0 261 209 473 467 473 258 0 468-212 468-473 0-262-210-474-468-474z m0 906c-235 0-426-193-426-432 0-239 191-433 426-433 236 0 427 194 427 433 0 239-191 432-427 432z m0-844c-224 0-407 184-407 412 0 227 183 412 407 412 225 0 407-185 407-412 0-228-182-412-407-412z m0 782c-201 0-365-166-365-370 0-205 164-370 365-370 202 0 366 165 366 370 0 204-164 370-366 370z m0-720c-190 0-345 157-345 350 0 193 155 350 345 350 191 0 346-157 346-350 0-193-155-350-346-350z m-74 519c6-5-1-9-5-11l-85-59c-4-3-6-6-8-10-1-3-1-17-1-17l0-158c0-11 0-12-3-21-4-9-14-18-14-27l96 67c6 4 9 8 9 14l0 172c0 7 0 11 11 22l122 95-11-6c-14-7-22 0-39 5-24 7-49 12-66 12-17 0-70-7-105-32l-47-40 8 5c17 10 61 14 77 11 34-6 56-17 61-22z m206-159c-4 1-8-1-13 11l76 53c8 5 20 17 20 39 0 6 0 20-17 45l-45 63c-8 11-14 20-27 20-11 0-19-4-28-11l-149-106c-6-5-6-16-6-22l0-188c0-17 0-15-3-21-3-7-14-18-14-20l0-7 106 73c7 5 11 14 11 19l0 191c0 9 6 20 17 28 6 5 12 3 17-1l-1-340c-22 13-50 22-78 22-61 0-88-11-122-28-29-14-55-33-75-57 30 15 49 21 82 25 41 5 66 1 105-13 25-9 40-16 60-32l161 111c4 2 6 6 8 8 3 4 3 31 3 52 0 18-5 62-38 75-17 7-34 9-50 11z m-39 146l40-59c0 0 5-13 4-22-1-12-6-20-15-27l-29-20 0 128z m27-336c0-3 0-6-2-7-2-1-6 2-9 3l-16 10 0 172c5-4 11-7 16-12 6-6 11-9 11-17l0-149z" horiz-adv-x="3042" />

<glyph glyph-name="isotipo" unicode="&#xe801;" d="M506 850c-279 0-506-224-506-500 0-276 227-500 506-500 280 0 507 224 507 500 0 276-227 500-507 500z m0-979c-268 0-485 215-485 479 0 265 217 479 485 479 268 0 485-214 485-479 0-264-217-479-485-479z m1 916c-245 0-443-195-443-437 0-241 198-437 443-437 244 0 442 196 442 437 0 242-198 437-442 437z m0-854c-234 0-422 187-422 417 0 230 188 417 422 417 233 0 422-187 422-417 0-230-189-417-422-417z m0 791c-210 0-379-167-379-374 0-207 169-374 379-374 209 0 379 167 379 374 0 207-170 374-379 374z m0-728c-198 0-359 159-359 354 0 195 161 354 359 354 197 0 358-159 358-354 0-195-161-354-358-354z m-77 525c5-5-2-8-6-11l-88-60c-4-3-6-6-8-9-2-4-2-18-2-18l0-160c0-11 0-12-3-21-3-9-14-18-14-27l100 68c6 3 9 8 9 14l0 174c0 7 0 11 12 22l126 96-11-6c-15-7-23 0-41 5-25 7-51 12-69 12-17 0-72-7-109-32l-48-40 8 4c18 11 63 15 81 12 34-6 57-17 63-23z m213-160c-4 0-8-1-14 11l80 53c7 5 20 17 20 40 0 6 0 20-18 45l-46 64c-8 11-15 20-28 20-12 0-19-4-29-11l-155-107c-6-5-6-17-6-22l0-191c0-17 0-15-3-21-3-7-14-18-14-20l0-7 110 74c7 5 10 13 10 19l0 193c0 9 7 20 19 29 5 4 11 2 17-2l-1-344c-23 14-52 23-81 23-63 0-92-11-126-28-31-15-57-34-78-59 31 16 50 22 85 26 42 5 68 1 109-13 26-9 41-17 62-33l167 112c4 3 7 7 9 9 3 4 3 31 3 52 0 18-6 63-40 76-18 7-35 10-52 12z m-41 147l42-59c0 0 5-14 4-23-1-12-6-20-16-27l-30-21 0 130z m29-340c0-3-1-5-2-7-2-1-7 2-10 3l-17 10 0 175c6-4 12-8 18-13 5-6 11-9 11-17l0-151z" horiz-adv-x="1018" />

<glyph glyph-name="mas-asesoria" unicode="&#xe802;" d="M332 606a20 20 0 0 1-15 7h-184a20 20 0 0 1-19-20v-407a20 20 0 0 1 20-21h92a20 20 0 0 1 19 16l91 408a20 20 0 0 1-4 17z m743-4a40 40 0 0 1-40 31h-2l-243-15a41 41 0 0 1-25-10l-10-9-10 9a41 41 0 0 1-27 11h-306a40 40 0 0 1-39-32l-72-316a40 40 0 0 1 10-36 41 41 0 0 1 30-13l5 0 96 13 256-198 27-25a41 41 0 0 1 28-10 40 40 0 0 1 7 0 41 41 0 0 1 25 11l183 169 91 82 32-9a41 41 0 0 1 39 9 40 40 0 0 1 12 38z m-92-351a19 19 0 0 1-2 2l-173 158a20 20 0 0 1-28-1 20 20 0 0 1 1-29l173-157-13-13-28-26 0 0a19 19 0 0 1-4 5l-144 126a20 20 0 0 1-28-1 20 20 0 0 1 1-29l144-126 1 0 1 0-42-38-1 1a19 19 0 0 1-4 5l-118 102a20 20 0 0 1-28-1 20 20 0 0 1 2-29l117-103 2-2 2-1-19-17c0 0 0 1-1 2a20 20 0 0 1-6 7l-29 23a20 20 0 0 1-28-3l-21-26-1-1-17 13 2 3 21 24a20 20 0 0 1-3 28l-29 23a20 20 0 0 1-29-3l-16-20-7-8-17 13 29 35a20 20 0 0 1-3 28l-29 24a20 20 0 0 1-28-3l-29-36-11 8-6 5 0 0a21 21 0 0 1 5 4l30 37a20 20 0 0 1-3 28l-28 23a20 20 0 0 1-29-3l-18-22-12-16h0a20 20 0 0 1-3-6l-25 18-12-1-101-12 71 317h305l8-7 3-4-89-110a43 43 0 0 1-11-28 27 27 0 0 1 7-17c24-25 77-5 77-5l66 77a58 58 0 0 0 23 17l232-208z m334 379h-183a20 20 0 0 1-16-7 20 20 0 0 1-4-17l91-408a20 20 0 0 1 20-16h92a20 20 0 0 1 20 20v408a20 20 0 0 1-20 20z" horiz-adv-x="1477" />

<glyph glyph-name="menu" unicode="&#xe803;" d="M130 100c71 0 129-56 129-125 0-69-58-125-129-125-72 0-130 56-130 125 0 69 58 125 130 125l0 0z m0 125c-72 0-130 56-130 125 0 69 58 125 130 125 71 0 129-56 129-125 0-69-58-125-129-125l0 0z m0 375c-72 0-130 56-130 125 0 69 58 125 130 125 71 0 129-56 129-125 0-69-58-125-129-125l0 0z" horiz-adv-x="261" />

<glyph glyph-name="agregar_favorito" unicode="&#xe804;" d="M1056 469l-380 33-148 348-148-349-380-32 288-249-86-370 326 196 326-196-86 370 288 249 0 0z m-528-324l-199-120 53 226-175 151 231 20 90 212 90-212 231-20-175-152 53-225-199 120 0 0z" horiz-adv-x="1063" />

<glyph glyph-name="eliminar_favorito" unicode="&#xe805;" d="M507 850l-135-360-372-22 289-244-95-374 313 209 314-209-95 374 288 244-372 22z" horiz-adv-x="1014" />

<glyph glyph-name="marcador_favoritos" unicode="&#xe806;" d="M950 483c1-10-5-18-13-25-33-26-66-53-99-79-9-8-11-14-8-25 10-40 20-79 30-119 4-15 0-28-13-38-11-8-26-8-40 1-36 23-73 45-110 68-8 5-13 5-21 0-35-22-70-43-105-64-10-7-21-10-33-7-18 4-28 21-23 39 11 44 22 87 33 130 2 6 1 10-4 14-31 26-62 52-94 78-11 9-22 19-20 35 1 17 13 29 30 31 46 3 92 6 138 8 7 1 9 4 11 10 16 37 31 74 47 112 2 3 3 7 4 10 7 12 17 20 32 19 15 0 25-7 30-20 17-41 33-81 49-121 3-8 7-12 17-12 40-2 80-6 121-9 6 0 12-1 17-3 15-4 24-16 24-33z m-541-76c15-12 30-24 45-37 8-7 16-13 24-20-7-27-14-54-21-81l-5-19c-6-26-2-52 11-74 14-22 35-37 60-43 27-6 56-1 82 15 14 9 27 17 41 25 14 9 27 17 41 25 1-1 2-1 3-2l0-335c0-9-11-14-19-8l-25 20c-7 5-12 9-17 13l-4 3c-57 48-115 95-172 142-21 17-42 34-63 51-2 2-4 3-6 5-2 1-4 3-7 5-3 2-6 4-9 5 0 1-1 1-2 2-3 1-5 2-8 3-1 0-2 1-3 1-2 1-4 1-6 1-1 0-3 0-4 0-1 0-3 0-4 0-2 0-4 0-6-1-1 0-2-1-3-1-3-1-5-2-8-3-1-1-2-1-2-2-3-1-6-3-9-5-3-2-5-4-7-5-2-2-4-3-6-5-21-17-42-34-63-51-46-38-169-137-217-175-8-7-20-1-20 9l0 57 0 433c0 148 0 296 0 444 0 41 11 51 54 51 50 0 99 0 149 0l284 0c49 0 99 0 149 0 43 0 54-10 54-51l0-54c-38-1-70-21-87-55-2-4-4-8-6-12l-13-31c-7-19-15-37-23-56-22-1-44-2-66-4l-39-2c-49-4-87-41-91-89-3-50 31-78 44-89z" horiz-adv-x="955" />

<glyph glyph-name="avatar" unicode="&#xe807;" d="M500 850c-276 0-500-224-500-500 0-276 224-500 500-500 276 0 500 224 500 500 0 276-224 500-500 500l0 0z m11-114c108 0 196-88 196-197 0-108-88-196-196-196-109 0-197 88-197 196 0 109 88 197 197 197l0 0z m-7-823c-142 0-267 72-340 182 2 113 226 174 340 174 112 0 337-61 339-174-73-110-198-182-339-182l0 0z" horiz-adv-x="1000" />

<glyph glyph-name="correcto" unicode="&#xe808;" d="M500 850c-276 0-500-224-500-500 0-276 224-500 500-500 276 0 500 224 500 500 0 276-224 500-500 500l0 0z m-116-767l-252 251 71 71 181-180 382 382 71-71-453-453 0 0z" horiz-adv-x="1000" />

<glyph glyph-name="error" unicode="&#xe809;" d="M500 850c-276 0-500-223-500-500 0-276 224-500 500-500 277 0 500 224 500 500 0 277-223 500-500 500l0 0z m250-679l-70-71-180 180-179-180-71 71 180 179-180 180 71 70 179-179 180 179 70-70-179-180 179-179 0 0z" horiz-adv-x="1000" />

<glyph glyph-name="ayuda" unicode="&#xe80a;" d="M500 850c-276 0-500-224-500-500 0-276 224-500 500-500 276 0 500 224 500 500 0 276-224 500-500 500l0 0z m-50-750l100 0 0-100-100 0 0 100z m204 288l-45-46c-36-37-59-67-59-142l-100 0 0 25c0 55 23 105 59 142l62 63c18 18 29 43 29 70 0 55-45 100-100 100-55 0-100-45-100-100l-100 0c0 111 90 200 200 200 111 0 200-89 200-200 0-44-18-84-46-112l0 0z" horiz-adv-x="1000" />

<glyph glyph-name="atencion" unicode="&#xe80b;" d="M0-150l1156 0-578 1000-578-1000 0 0z m526 263l105 0 0-105-105 0 0 105z m0 316l105 0 0-211-105 0 0 211z" horiz-adv-x="1162" />

<glyph glyph-name="informacion" unicode="&#xe80c;" d="M500 850c-276 0-500-224-500-500 0-276 224-500 500-500 276 0 500 224 500 500 0 276-224 500-500 500l0 0z m-50-450l100 0 0-300-100 0 0 300z m0 200l100 0 0-100-100 0 0 100z" horiz-adv-x="1000" />

<glyph glyph-name="notificacion" unicode="&#xe80d;" d="M406-150c53 0 96 45 96 100l-191 0c0-55 43-100 95-100l0 0z m311 300l0 275c0 154-102 282-239 316l0 34c0 42-32 75-72 75-39 0-71-33-71-75l0-34c-138-34-239-162-239-316l0-275-96-100 0-50 813 0 0 50-96 100 0 0z" horiz-adv-x="820" />

<glyph glyph-name="notificacion_globo" unicode="&#xe80e;" d="M518-150c52 0 95 45 95 100l-191 0c0-55 43-100 96-100z m311 300l0 275c0 154-102 282-239 316l0 34c0 42-32 75-72 75-40 0-72-33-72-75l0-34c-137-34-239-162-239-316l0-275-95-100 0-50 812 0 0 50-95 100z m-548 601l-72 72c-122-92-202-235-209-397l101 0c8 134 77 251 180 325l0 0z m627-325l101 0c-8 162-88 305-209 397l-71-72c102-74 171-191 179-325z" horiz-adv-x="1009" />

<glyph glyph-name="disclaimer" unicode="&#xe80f;" d="M864 136l0-286-282 283-256 0c-180 0-326 146-326 326l0 65c0 180 146 326 326 326l489 0c180 0 326-146 326-326l0-65c0-164-120-299-277-323z" horiz-adv-x="1144" />

<glyph glyph-name="nuevo" unicode="&#xe810;" d="M8 335l117-84-60-132c-2-6-2-13 1-19 3-5 9-9 16-10l143-13 12-144c2-7 5-13 11-16 5-4 12-4 18-2l130 61 83-118c4-6 11-8 16-8 7 0 13 3 16 8l83 118 131-61c5-2 12-2 18 2 5 3 9 9 10 16l12 144 144 13c6 1 12 5 15 10 4 6 4 13 2 19l-61 132 117 84c6 3 8 10 8 16 0 6-3 12-8 16l-117 84 61 132c2 5 2 12-2 18-3 6-9 9-15 10l-144 13-12 145c-1 7-5 12-10 16-6 3-13 3-18 1l-131-61-84 117c-8 11-25 11-32 0l-83-118-130 61c-6 2-13 2-19-1-5-4-9-9-10-16l-12-145-143-13c-7-1-13-4-16-10-4-6-4-13-1-18l60-132-116-83c-6-4-8-9-8-16 0-7 3-13 8-16z m373 204c4 0 7 0 9-1 2 0 4-1 6-1 2-1 3-2 5-4 2-1 4-3 6-6l156-198c0 6-1 13-1 18 0 6-1 12-1 17l0 175 68 0 0-330-40 0c-6 0-11 1-15 3-4 2-8 5-12 10l-155 196c0-6 1-11 1-17 0-5 1-10 1-15l0-177-68 0 0 330 40 0z" horiz-adv-x="991" />

<glyph glyph-name="premio" unicode="&#xe811;" d="M786 496c0-1-40-48-110-89 31 59 59 138 67 240l7 109 150 0c-6-51-30-162-114-260l0 0z m-606 0c-84 98-107 209-114 260l150 0 7-109c9-102 36-181 68-240-70 41-110 88-111 89l0 0z m574 320l2 28-545 0 1-28-208 0 0-30c0-7 2-177 130-329 3-4 84-98 223-145 32-35 58-51 58-51l0-173-69-76 274 0-68 76 0 173c0 0 25 16 57 51 140 47 220 141 223 145 129 152 130 322 130 329l0 30-208 0z m-534-963l526 0 0 116-526 0 0-116z" horiz-adv-x="964" />

<glyph glyph-name="indicadores" unicode="&#xe812;" d="M717 714l120-114 30-30-181-179 0 0-59-59-195 197-412-410c33-38 67-74 102-110l310 309 195-197 348 346 30-30 11-10 124-122 14 434z" horiz-adv-x="1174" />

<glyph glyph-name="cuenta" unicode="&#xe813;" d="M1049 19l0-55c0-61-52-111-116-111l-816 0c-65 0-117 50-117 111l0 775c0 61 52 111 117 111l816 0c64 0 116-50 116-111l0-55-524 0c-65 0-117-50-117-111l0-443c0-61 52-111 117-111l524 0 0 0z m-524 111l583 0 0 443-583 0 0-443z m233 139c-48 0-88 37-88 83 0 46 40 83 88 83 48 0 87-37 87-83 0-46-39-83-87-83l0 0z" horiz-adv-x="1115" />

<glyph glyph-name="clave" unicode="&#xe814;" d="M647 517l0 95c0 131-111 238-249 238-137 0-249-107-249-238l0-95-49 0c-55 0-100-43-100-96l0-476c0-52 45-95 100-95l597 0c55 0 99 43 99 95l0 476c0 53-44 96-99 96l-50 0z m-249-429c-55 0-99 43-99 95 0 53 44 96 99 96 55 0 100-43 100-96 0-52-45-95-100-95l0 0z m154 429l-308 0 0 95c0 81 69 148 154 148 85 0 154-67 154-148l0-95 0 0z" horiz-adv-x="802" />

<glyph glyph-name="eur" unicode="&#xe815;" d="M667-11c-140 0-260 79-320 194l320 0 0 111-357 0c-3 19-4 37-4 56 0 19 1 37 4 56l357 0 0 111-320 0c60 115 181 194 320 194 89 0 171-33 235-87l98 98c-88 80-206 128-333 128-218 0-403-139-471-333l-196 0 0-111 170 0c-2-19-3-37-3-56 0-19 1-37 3-56l-170 0 0-111 196 0c68-194 253-333 471-333 128 0 245 48 333 128l-99 98c-63-54-144-87-234-87l0 0z" horiz-adv-x="1000" />

<glyph glyph-name="usd" unicode="&#xe816;" d="M304 411c-126 33-166 67-166 120 0 60 56 102 150 102 99 0 135-47 139-116l122 0c-3 95-62 183-178 211l0 122-167 0 0-120c-107-23-194-93-194-201 0-128 106-192 261-229 139-33 167-82 167-134 0-38-27-99-150-99-115 0-160 51-166 116l-122 0c7-121 98-190 204-212l0-121 167 0 0 119c108 21 195 84 195 198 0 157-135 211-262 244l0 0z" horiz-adv-x="568" />

<glyph glyph-name="distribucion" unicode="&#xe817;" d="M450 696l0 154c-250-25-450-240-450-500 0-259 200-475 450-500l0 154c-150 24-300 170-300 346 0 176 150 322 300 346l0 0z m399-296l151 0c-23 250-200 427-450 450l0-154c150-21 277-146 299-296z m-299-396l0-154c250 23 427 200 450 450l-151 0c-22-150-149-274-299-296z" horiz-adv-x="1000" />

<glyph glyph-name="fondos_mutuos" unicode="&#xe818;" d="M903 444c-41 0-76-25-89-62l-87 0c-6 40-22 76-46 107l62 62c35-18 80-12 108 18 38 37 38 97 0 135-37 37-97 37-134 0-29-29-35-73-18-108l-62-62c-31 23-67 39-107 45l0 87c37 14 63 49 63 89 0 53-42 95-94 95-53 0-95-42-95-95 0-41 26-76 64-90l0-86c-40-6-77-21-108-45l-62 62c17 35 11 79-18 108-37 37-97 37-134 0-38-38-38-98 0-135 28-29 73-35 108-18l62-62c-24-32-39-68-45-107l-87 0c-14 36-49 62-89 62-53 0-95-42-95-94 0-53 42-95 95-95 41 0 76 26 90 64l86 0c6-41 21-78 45-108l-62-62c-35 17-79 11-107-18-38-37-38-97 0-135 37-37 97-37 134 0 29 29 35 74 18 109l62 62c31-24 68-39 109-46l0-86c-38-13-64-49-64-90 0-53 42-95 95-95 52 0 95 42 95 95 0 41-26 76-63 89l0 87c40 6 76 22 107 46l62-62c-18-35-12-80 18-109 38-37 97-37 135 0 37 38 37 98 0 135-29 29-73 35-108 18l-62 62c24 31 40 68 45 108l86 0c13-38 49-64 90-64 53 0 95 42 95 95 0 52-46 94-98 94z m-348-173c-8-10-19-17-33-22-6-2-8-4-8-10l0-17c0-6-3-9-8-9l-19 0c-5 0-8 3-8 9l0 13c0 9 0 10-9 11-12 2-23 4-34 10-9 4-10 6-8 15 2 6 3 14 5 20 3 7 5 8 12 5 11-6 25-9 37-11 8-2 17 0 25 3 14 6 16 23 4 34-3 2-8 5-14 7-12 5-25 10-38 17-19 12-32 28-31 52 2 27 17 44 43 53 10 4 10 3 10 14l0 11c0 9 2 10 9 10l7 0c18 0 18 0 18-18 0-12 0-12 12-14 10-1 19-4 27-8 5-3 6-6 5-11-2-7-4-14-6-23-2-7-4-8-11-5-14 7-28 10-42 9-5 0-8-1-12-2-12-6-14-20-4-29 5-5 11-8 19-11 11-5 22-9 33-15 34-16 43-59 19-88z" horiz-adv-x="1009" />

<glyph glyph-name="acciones" unicode="&#xe819;" d="M1192 361c9 43 18 87 27 130 5 25-3 42-22 48-6 1-14 2-23 0-32-6-64-12-95-18-12-2-23-5-34-7-5-1-10-2-15-2-12-3-25-5-38-8-17-5-27-18-26-35 0-16 9-28 23-32 2-1 3-1 4-1 8-2 16 0 23 1 7 0 14 2 21 4 2 0 5 1 8 1 9 2 18 4 27 6l12 2c-150-139-322-222-514-247-121-16-248-11-379 17-34 7-102 25-102 25 0 0-18 9-33 15-25 8-41 7-51-13-5-9-6-18-3-26 2-7 7-16 22-23 13-6 25-13 38-18 15-6-17 4 20-6 92-26 185-42 276-48l3 0c9-1 19-1 28-1 9-1 19-1 28-1 9 0 18 0 28 0 9 0 18 0 27 1 9 0 18 0 27 1 9 1 18 1 27 2 9 1 18 2 27 3 9 1 18 2 27 3 8 1 17 2 26 4 9 1 17 3 26 4 9 2 17 4 26 6 9 2 17 4 26 6 8 2 17 4 25 6 9 2 17 5 25 7 9 3 17 6 25 8 9 3 17 6 25 9 8 3 17 6 25 9 8 3 16 7 24 10 8 4 16 7 24 11 8 4 16 7 24 11 8 4 16 8 24 12 8 4 15 9 23 13 8 4 16 9 23 13 8 5 16 9 23 14 8 5 16 10 23 15 8 5 15 10 22 15 8 6 15 11 23 17 7 5 14 11 22 16 7 6 14 12 21 18 5 4 25 23 46 44 0 0 0-1-1-2 0-2-1-4-1-4-2-8-3-16-5-24-4-15-7-31-11-47-3-19 8-39 26-43 18-4 36 8 42 29 1 3 2 5 2 8l9 42z m-170-171c-8-5-16-10-24-14-9-5-17-9-25-13-9-4-18-9-26-13-9-4-17-8-26-11-9-4-18-8-27-12-8-3-17-7-26-10-9-4-18-7-27-10-9-3-19-6-28-9-6-2-12-4-18-6l0-181c0-1 0-1 0-1l0-48 254 0 0 49c0 1 0 1 0 2l0 292c-1 0-2 0-2-1-8-5-17-10-25-14z m-333-132c-82-18-167-28-253-30 0-31 0-59 0-84l0 0 0-88 253 0 0 88 0 0 0 114z m-550-12c-14 2-28 4-42 6-7 1-14 3-21 6 0-59 0-116 0-147l0-61 253 0 0 88c0 25 0 54 0 85-17 1-34 2-51 4-48 3-94 11-139 19z m-63 273c16-10 40-20 62-25 61-13 125-21 191-24 0 39 0 75 0 105l0 88-253 0 0-88c0-28 0-28 0-56z m360 228l0 0c0-75 0-178 0-283 18 1 35 1 53 3 69 5 136 15 200 32l0 248 0 0 0 88-253 0 0-88z m613 303l-253 0 0-48c-1-120-1-296-1-469 14 5 27 11 40 16 49 22 113 64 113 64 0 0-53 73 0 109 42 25 98 38 98 38 0 0 3 124 3 202l0 88z" horiz-adv-x="1225" />

<glyph glyph-name="moneda_extranjera" unicode="&#xe81a;" d="M304 850c-168 0-304-136-304-303 0-168 136-304 304-304 168 0 304 136 304 304 0 167-136 303-304 303z m-162-371l38 0 0-2c6-26 19-51 36-71 27-29 66-45 109-45 37 0 67 10 82 19l-8 58c-13-7-36-13-59-13-27 0-48 9-64 25-7 8-11 18-14 25l-2 4 122 0 0 37-130 0 0 3c-1 7-1 11-1 16 0 3 0 9 1 14l0 3 130 0 0 36-121 0 1 4c3 11 8 21 15 29 15 16 37 25 62 25 25 0 43-7 52-11l15 59c-10 4-35 15-74 15-45 0-86-18-115-49-18-19-30-43-37-69l0-3-38 0 0-36 32 0 0-3c-1-6-1-12-1-16 0-1 0-2 1-4 0-3 0-6 0-10l0-3-32 0 0-37 0 0z m471-325c0-168 137-304 304-304 168 0 304 136 304 304 0 167-136 303-304 303-167 0-304-136-304-303z m439-94l-88 0 0 39 88 0 0 37-70 0 89 148-81 0-33-75c-7-17-13-32-19-47l-7-17-4 0-2 2c-5 14-9 25-14 39-3 7-6 14-9 23l-32 75-84 0 84-148-69 0 0-37 87 0 0-39-87 0 0-38 87 0 0-65 76 0 0 65 88 0 0 38z" horiz-adv-x="1225" />

<glyph glyph-name="cartera_activa" unicode="&#xe81b;" d="M693 661l-234 0 0 59c0 26 20 47 46 47l142 0c25 0 46-21 46-47l0-59z m330 0l-247 0 0 59c0 72-58 130-129 130l-142 0c-71 0-129-58-129-130l0-59-247 0c-71 0-129-58-129-130l0-552c0-71 58-129 129-129l894 0c71 0 128 58 128 129l0 552c0 72-57 130-128 130z m-774-657l175 0 0 230-175 0 0-230z m244 0l175 0 0 345-175 0 0-345z m244 0l175 0 0 459-175 0 0-459z" horiz-adv-x="1153" />

<glyph glyph-name="banchile_pay" unicode="&#xe81c;" d="M831 76c-7 4-11 7-11 7l-244-8c-87 2-98 58-98 58 2 78 183 83 183 83 0 0 215 46 180 116 0 1-1 2-1 3l-436 435c-24 25-64 25-89 0l-235-235c-12-12-18-28-18-45 0-17 6-32 18-44l516-516c24-25 64-25 89 0l146 146z m159 485c-1-27 212-294 264-357 12 5 27 3 37-7l49-49c13-13 13-34 0-48l-188-188c-14-13-35-13-48 0l-49 49c-10 10-12 25-6 38l-21 20c-51 1-100 15-137 30l-162-163c-49-48-128-48-177 0l-515 516c-24 24-37 55-37 88 0 34 13 65 37 88l235 236c48 48 127 48 176 0l186-186c79 4 238-3 253-2 64 8 103-65 103-65l0 0z m-509-311c-5 7-9 14-13 21-4 9-3 11 6 14 16 5 29 13 42 23 8 6 15 14 19 24 7 18-6 35-25 33-7-1-13-3-20-5-16-6-31-14-48-18-27-7-52-4-71 18-22 25-23 53-10 82 6 12 6 12-3 21-3 3-6 6-9 10-7 7-7 9 0 16 2 2 4 4 6 7 15 14 15 14 30 0 10-11 10-11 22-2 9 7 19 12 30 16 6 2 10 1 13-4 5-9 9-17 14-25 4-8 3-11-6-14-17-6-31-16-43-29-3-4-6-7-8-12-6-16 4-29 21-28 9 1 17 4 25 7 13 6 27 12 41 16 46 13 91-16 96-62 1-16-2-32-11-47-3-6-3-11 3-16 5-5 10-10 15-15 4-5 4-10 0-14-5-6-11-11-16-17-5-4-10-4-15 1-4 4-7 7-11 11-8 8-9 8-18 1-12-8-24-16-38-20-10-4-13-3-18 7l0 0z" horiz-adv-x="1351" />

<glyph glyph-name="mve" unicode="&#xe81d;" d="M500 850c-276 0-500-224-500-500 0-276 224-500 500-500 276 0 500 224 500 500 0 276-224 500-500 500l0 0z m346-300l-147 0c-16 63-39 123-69 178 92-31 168-95 216-178l0 0z m-346 198c42-60 74-126 96-198l-191 0c21 72 54 138 95 198l0 0z m-387-498c-8 32-13 66-13 100 0 35 5 68 13 100l169 0c-4-33-7-66-7-100 0-34 3-67 7-100l-169 0 0 0z m41-100l148 0c16-62 39-122 69-178-92 32-169 95-217 178l0 0z m148 400l-148 0c48 83 125 147 217 178-30-55-53-115-69-178l0 0z m198-598c-41 60-74 127-95 198l191 0c-22-71-54-138-96-198l0 0z m117 298l-234 0c-4 33-8 66-8 100 0 34 4 68 8 100l234 0c5-32 8-66 8-100 0-34-3-67-8-100l0 0z m13-278c30 56 53 116 69 178l147 0c-48-82-124-146-216-178l0 0z m88 278c4 33 7 66 7 100 0 34-3 67-7 100l169 0c8-32 13-65 13-100 0-34-5-68-13-100l-169 0 0 0z" horiz-adv-x="1000" />

<glyph glyph-name="derivados" unicode="&#xe81e;" d="M750 143c-38 0-72-15-98-38l-356 208c2 11 4 23 4 35 0 12-2 24-4 35l352 207c27-26 63-41 102-41 83 0 150 67 150 150 0 84-67 151-150 151-83 0-150-67-150-151 0-12 2-23 5-35l-353-206c-27 25-62 41-102 41-83 0-150-68-150-151 0-83 67-151 150-151 40 0 75 16 102 41l356-209c-2-10-4-21-4-32 0-81 66-147 146-147 81 0 146 66 146 147 0 80-65 146-146 146" horiz-adv-x="901" />

<glyph glyph-name="caja_internet" unicode="&#xe81f;" d="M621 820c-25 33-71 40-105 16l-205-148 326 109-16 23m143-114c-11 31-40 50-71 50-8 0-16-1-23-3-1-1-1-1-1-1l-252-84 359 0-12 38m2-632c-96 0-175 78-175 173 0 96 79 173 175 173l60 0c17 0 33-2 49-7l0 129c0 1 0 2 0 4-1 14-6 26-13 37-9 13-23 23-38 28-8 3-16 4-24 4l-725 0c-22 0-42-9-55-24-9-9-15-21-18-33-1-6-2-11-2-16l0-613c0-40 33-73 74-73 0 0 1 0 1 0l725 0c41 0 75 33 75 73l0 153c-16-5-32-8-49-8l-60 0m30 121c-29 0-53 24-53 52 0 29 24 53 53 53 29 0 53-24 53-53 0-28-24-52-53-52l0 0z m79 162c-15 7-32 11-49 11l-60 0c-67 0-122-54-122-121 0-66 55-120 122-120l60 0c17 0 34 4 49 11 42 18 72 60 72 109 0 49-30 92-72 110l0 0z" horiz-adv-x="955" />

<glyph glyph-name="firmar" unicode="&#xe820;" d="M254 512l-254-534 48-48 316 315c-12 25-8 56 13 77 27 26 70 26 97 0 27-27 27-70 0-97-21-21-52-25-77-13l-316-315 47-47 538 253 115 319-206 205-321-115z m735 62l-261 260c-21 21-56 21-77 0l-63-62c-21-21-21-56 0-77l261-260c22-21 56-21 78 0l62 62c22 21 22 56 0 77z" horiz-adv-x="1009" />

<glyph glyph-name="llamar" unicode="&#xe821;" d="M201 417c80-157 209-285 366-366l122 122c15 15 38 20 57 14 62-21 130-32 198-32 31 0 56-25 56-56l0-193c0-31-25-56-56-56-521 0-944 423-944 944 0 31 25 56 56 56l194 0c31 0 56-25 56-56 0-69 11-136 31-198 6-19 2-41-14-57l-122-122" horiz-adv-x="1000" />

<glyph glyph-name="aprender" unicode="&#xe822;" d="M166 597l0 0 0 106-21 7 0-113 0 0-15-29 26 0 0 14 0-14 26 0-16 29z m457-30c1-4 2-9 3-14 15-92 10-212-51-287-61-75-34-106-34-106 73-98 191-69 267-123 77-55 58-180 58-180l-864 0c0 0-19 125 58 180 76 54 194 25 267 123 0 0 27 31-34 106-61 75-66 195-51 287 1 5 2 10 3 14l0 101 189-59 189 59 0-101z m-153 279c-20 6-52 6-72 0l-259-80c-20-6-20-15 0-21l259-80c20-6 52-6 72 0l259 80c19 6 19 15 0 21l-259 80z m-340-313l52 0 0 35-52 0 0-35z" horiz-adv-x="872" />

<glyph glyph-name="descargar" unicode="&#xe823;" d="M815 497l-233 0 0 353-349 0 0-353-233 0 407-412 408 412 0 0z m-815-647l815 0 0 118-815 0 0-118z" horiz-adv-x="820" />

<glyph glyph-name="buscar" unicode="&#xe824;" d="M736 427c0-148-129-269-286-269-158 0-286 121-286 269 0 148 128 269 286 269 157 0 286-121 286-269l0 0z m327-500c0 20-9 40-24 54l-219 206c52 71 79 155 79 240 0 234-201 423-449 423-249 0-450-189-450-423 0-234 201-423 450-423 90 0 180 26 254 74l219-205c15-15 36-23 58-23 45 0 82 35 82 77l0 0z" horiz-adv-x="1063" />

<glyph glyph-name="imprimir" unicode="&#xe825;" d="M938 572l-772 0c-92 0-166-74-166-166l0-334 221 0 0-222 662 0 0 222 220 0 0 334c0 92-73 166-165 166l0 0z m-607-333l441 0 0-278-441 0 0 278z m607 111c-30 0-55 25-55 56 0 30 25 55 55 55 30 0 55-25 55-55 0-31-25-56-55-56l0 0z m-717 278l662 0 0 222-662 0 0-222z" horiz-adv-x="1108" />

<glyph glyph-name="comparar" unicode="&#xe826;" d="M885-86c-31 3-61 8-90 17-17 5-36-5-41-22-5-17 5-35 22-40 34-10 69-16 104-19l2 0c18-1 34 13 34 31 1 18-13 33-31 33l0 0z m-312 797c-26-24-49-50-69-79-10-15-6-35 9-45 15-10 35-6 45 8 17 26 37 49 59 70 13 12 14 32 2 45-13 13-33 14-46 1z m-143-478c4-15 17-25 32-25 3 0 6 0 8 0 18 4 28 21 24 39 0 0 0 0 0 0-7 29-11 60-12 90 0 18-14 32-32 32-18 0-33-14-33-32 1-35 5-70 13-104z m20 169l6 0c16 0 30 11 33 27 5 30 14 59 26 87 7 16-1 35-18 42-16 7-35-1-42-17-14-32-24-66-30-100-4-18 7-35 25-38 0 0 0 0 0-1z m865 135c13-28 24-56 31-86 5-17 23-26 41-21 15 5 25 20 22 36-8 34-20 66-35 97-9 15-29 21-45 12-14-8-20-25-14-40l0 2z m-48 77c11-14 31-16 46-6 14 11 17 32 6 46-22 27-46 53-73 75-14 12-34 10-46-3-12-14-10-34 4-46 23-19 44-41 63-66z m-410 166l5 0c30 5 61 6 92 4 18-1 33 12 34 30 2 18-12 33-30 35-35 2-70 1-105-3-18-1-31-17-30-35 1-17 17-31 34-30l0-1z m-184-65c6 0 12 2 17 5 26 16 54 29 83 39 17 6 27 24 21 41-6 17-24 26-41 20-1 0-1 0-2 0-33-12-65-27-95-45-15-10-20-30-10-45 6-9 16-15 27-15l0 0z m-153-670c11-13 32-15 46-4 13 11 15 30 6 43-19 24-35 50-48 78-7 16-26 25-42 18-17-6-25-25-19-42 1-1 2-2 2-4 15-31 34-61 55-89z m701-12c-22-20-47-39-73-54-15-10-20-29-10-45 6-9 16-15 27-15 6 0 12 2 17 5 30 19 58 40 83 64 12 14 12 34-2 46-12 11-30 11-42 1l0-2z m104 149c-11-28-26-54-43-79-11-15-7-35 8-45 14-10 34-7 45 8 0 0 0 0 0 0 20 29 37 60 51 93l-30 13-31 10z m98 181c-1 18-16 32-34 31-17 0-32-15-31-33l0-12c0-26-2-52-7-78-4-18 8-35 26-38 0 0 0 0 0 0l6 0c16 0 29 11 32 26 5 30 8 60 8 90l0 14z m-251 382c9 15 3 35-13 43-15 8-31 15-47 22-16 7-33 13-50 18-17 5-35-5-40-22-6-17 4-35 22-40 14-4 29-9 44-14 14-6 27-12 40-19 5-3 10-4 16-4 11 0 22 6 28 16z m-462-778c-27 14-52 32-76 52-13 11-34 10-46-4-11-14-10-34 4-46 27-22 56-42 87-58 16-9 36-4 45 12 9 15 3 35-13 44l-1 0z m356-28c-29-10-59-17-89-21-18-1-32-17-31-34 1-18 17-32 35-30l4 0c35 4 69 12 102 24 17 6 26 25 20 41-6 17-24 26-41 20z m-493-18c-239-41-466 117-507 354-42 236 118 462 357 503 24 4 49 6 74 6 26 0 51-2 76-6 18-3 35 9 38 26 3 18-9 35-27 38-275 44-533-141-577-413-45-272 142-529 416-573 25-4 49-6 74-6 29 0 58 2 87 7 18 3 30 20 27 38-3 18-20 30-38 27l0-1z m207 49c226 162 276 474 113 698-13 18-28 35-43 51-13 13-33 14-46 2-13-13-14-33-2-46 167-174 161-449-15-615-14-13-29-26-45-37-15-10-19-30-9-45 10-15 30-19 45-9 1 0 1 1 2 1l0 0z" horiz-adv-x="1423" />

<glyph glyph-name="seguir" unicode="&#xe827;" d="M1119 288l-349-350 89-88 500 500-500 500-89-88 349-349 67-63-67-62z m-1119 0l761 0-350-350 89-88 500 500-500 500-88-88 349-349-761 0 0-125z" horiz-adv-x="1367" />

<glyph glyph-name="exploracion" unicode="&#xe828;" d="M598 743c-136 136-356 136-492 0-136-135-136-355 0-491 136-136 356-136 492 0 135 136 135 356 0 491l0 0z m-199-331l-133 133c-20-23-38-46-53-68l119-118c22 15 45 32 67 53z m39-39l77-77c-23-20-49-34-77-43l-67 66c22 16 45 34 67 54z m-241-84c-10 7-20 16-29 25-9 9-17 19-25 29 8 21 21 52 41 87l100-101c-34-19-65-32-87-40z m62-34c37-14 77-20 115-16l-50 50c-23-14-45-25-65-34z m232 263l-119 118c-22-15-45-33-67-53l133-133c20 23 38 45 53 68z m39-40l67-67c-10-27-24-53-43-77l-78 78c21 22 39 44 54 66z m32 173c-8 11-17 21-26 30-10 10-20 18-30 26-22-9-53-22-86-41l100-101c20 34 33 64 42 86z m33-61c14-37 19-76 16-115l-50 50c13 23 25 45 34 65z m-367-7l-78 78c-19-24-34-50-43-77l67-67c15 22 33 44 54 66z m-119-179c-14 37-19 77-16 116l51-50c-14-24-26-46-35-66z m224 272l-67 67c-28-10-54-24-77-43l77-78c22 20 45 38 67 54z m111 64c-37 14-76 20-115 16l51-50c23 14 45 25 64 34z m247-582c-184-184-483-184-667 0-15 15-15 39 0 54 15 15 39 15 54 0 154-154 405-154 559 0 155 154 155 405 0 560-14 15-14 39 0 54 15 15 40 15 54 0 185-184 185-484 0-668z m-22-307c-41 73-158 126-296 126-138 0-255-53-296-126l592 0z" horiz-adv-x="836" />

<glyph glyph-name="ver_folleto" unicode="&#xe829;" d="M690 850l-591 0c-55 0-99-45-99-100l0-800c0-55 44-100 99-100l591 0c54 0 99 45 99 100l0 800c0 55-45 100-99 100l0 0z m-591-100l246 0 0-400-123 75-123-75 0 400 0 0z" horiz-adv-x="793" />

<glyph glyph-name="ver_adjunto" unicode="&#xe82a;" d="M432 623l0-523c0-101-81-182-182-182-100 0-182 81-182 182l0 568c0 63 51 114 114 114 63 0 114-51 114-114l0-477c0-25-21-45-46-45-25 0-45 20-45 45l0 432-69 0 0-432c0-63 51-114 114-114 63 0 114 51 114 114l0 477c0 101-82 182-182 182-101 0-182-81-182-182l0-568c0-138 112-250 250-250 138 0 250 112 250 250l0 523-68 0 0 0z" horiz-adv-x="505" />

<glyph glyph-name="administracion_cartera" unicode="&#xe82b;" d="M632 751l-122 0 0 31c0 14 11 24 24 24l74 0c13 0 24-10 24-24l0-31z m172 0l-129 0 0 31c0 38-30 68-67 68l-74 0c-37 0-67-30-67-68l0-31-129 0c-37 0-67-30-67-67l0-289c0-37 30-67 67-67l466 0c37 0 67 30 67 67l0 289c0 37-30 67-67 67z m90-520c18 6 35 6 51-5-26-11-76-30-99-42l-16-9c-1-1-3-3-4-4-8 11-16 17-25 23 21 12 72 27 93 37z m-44-131l0 18c-1 8-3 15-5 21l0 2c33 18 99 50 136 63 18 7 35 7 52-4-12-5-25-10-36-16-38-19-104-55-137-78-5-1-8-3-10-6z m157 45c-43-21-104-56-144-83-2-2-6-5-9-6-18-11-36-19-58-24-115-25-283-27-283-27l-11 0c-8 0-13 5-14 11-2 8 4 15 12 16l251 24c27 4 49 29 46 58-3 29-29 51-57 47l-222 2c-14 0-39 4-53 8-144 43-225 3-268-16-9 16-27 27-48 25l-95-6c-32-3-56-29-54-60l15-213c2-30 30-53 62-51l95 7c21 1 37 14 45 31l421-19c47-4 91 2 132 23l13 7 318 187c16 9 28 25 28 42 0 19-13 43-44 46-21 1-66-23-78-29z m-895-245c-18 0-33 14-33 32 0 17 15 32 33 32 18 0 33-14 33-32 0-18-15-32-33-32z" horiz-adv-x="1135" />

<glyph glyph-name="recomendacion_fondos" unicode="&#xe82c;" d="M0 294l444 0 0 556-444 0 0-556z m0-444l444 0 0 333-444 0 0-333z m556 0l444 0 0 556-444 0 0-556z m0 667l444 0 0 333-444 0 0-333z" horiz-adv-x="1000" />

<glyph glyph-name="palabra-clave" unicode="&#xe82d;" d="M477 173c-39-15-82-23-127-23-195 0-350 155-350 350 0 195 155 350 350 350 195 0 350-155 350-350 0-45-8-88-23-127l308-308c10-10 15-20 15-35l0-130c0-30-20-50-50-50l-130 0c-15 0-25 5-35 15l-35 35 0 100-100 0 0 100-100 0-73 73 0 0z m-202 277c-70 0-125 55-125 125 0 70 55 125 125 125 70 0 125-55 125-125 0-70-55-125-125-125l0 0 0 0z" horiz-adv-x="1000" />

<glyph glyph-name="ubicacion" unicode="&#xe82e;" d="M361 850c-199 0-361-156-361-350 0-262 361-650 361-650 0 0 361 388 361 650 0 194-161 350-361 350l0 0z m0-475c-71 0-129 56-129 125 0 69 58 125 129 125 71 0 129-56 129-125 0-69-58-125-129-125l0 0z" horiz-adv-x="730" />

<glyph glyph-name="herramientas" unicode="&#xe82f;" d="M588 417l156 157c0 0-12 113 57 176 69 64 152 42 152 42l-117-111 68-69-1 0 66-64 114 113c0 0 20-82-45-150-66-67-179-52-179-52l-161-152 328-330-95-100-329 334-130-136c0 0 15-112-53-177-68-65-151-45-151-45l114 114-64 65-1-1-68 67-112-116c0 0-22 82 42 151 63 69 177 57 177 57l136 132-190 193c-27-13-86-4-86-4l-12-71-81-75-123 131 74 73 77 6c0 0-15 92 41 144 57 53 121 45 121 45 28 58 106 83 106 83 120 20 177-62 177-62 28-40-10-43-10-43-132 33-186-42-186-42 25-49-2-91-2-91l190-192z" horiz-adv-x="1090" />

<glyph glyph-name="calendario" unicode="&#xe830;" d="M302 400l-101 0 0-100 101 0 0 100 0 0z m202 0l-101 0 0-100 101 0 0 100 0 0z m201 0l-101 0 0-100 101 0 0 100 0 0z m101 350l-51 0 0 100-100 0 0-100-403 0 0 100-101 0 0-100-50 0c-56 0-100-45-100-100l-1-700c0-55 45-100 101-100l705 0c55 0 100 45 100 100l0 700c0 55-45 100-100 100l0 0z m0-800l-705 0 0 550 705 0 0-550 0 0z" horiz-adv-x="910" />

<glyph glyph-name="configurar" unicode="&#xe831;" d="M882 301c2 16 4 32 4 49 0 17-2 33-4 49l109 83c9 7 12 21 6 32l-103 173c-6 11-20 15-31 11l-128-50c-27 20-56 36-87 49l-20 132c-1 12-12 21-25 21l-206 0c-12 0-23-9-25-21l-19-132c-32-13-60-30-87-49l-128 50c-12 4-25 0-32-11l-102-173c-7-11-4-25 6-32l108-83c-2-16-3-32-3-49 0-16 1-33 3-49l-108-82c-10-8-13-21-6-32l102-173c7-11 20-16 32-11l128 50c27-20 55-37 87-49l19-133c2-12 13-21 25-21l206 0c13 0 24 9 25 21l20 133c31 12 60 29 87 49l128-50c11-5 25 0 31 11l103 173c6 11 3 24-6 32l-109 82 0 0z m-382-126c-99 0-180 79-180 175 0 97 81 175 180 175 99 0 180-78 180-175 0-96-81-175-180-175l0 0z" horiz-adv-x="1000" />

<glyph glyph-name="refrescar" unicode="&#xe832;" d="M388 623l0-137 194 182-194 182 0-136c-214 0-388-163-388-364 0-71 22-138 60-194l71 67c-22 38-34 81-34 127 0 150 130 273 291 273l0 0z m328-79l-71-67c21-38 34-81 34-127 0-150-131-273-291-273l0 137-194-182 194-182 0 136c214 0 388 163 388 364 0 71-22 138-60 194l0 0z" horiz-adv-x="784" />

<glyph glyph-name="resumen" unicode="&#xe833;" d="M889 850l-778 0c-61 0-111-50-111-111l0-778c0-61 50-111 111-111l778 0c61 0 111 50 111 111l0 778c0 61-50 111-111 111l0 0z m-667-389l111 0 0-389-111 0 0 389z m222 167l112 0 0-556-112 0 0 556z m223-334l111 0 0-222-111 0 0 222z" horiz-adv-x="1000" />

<glyph glyph-name="patrimonio" unicode="&#xe834;" d="M295 53l-78-115c-131 90-217 241-217 412 0 94 26 182 71 257l114-80c-29-52-46-112-46-177 0-123 62-232 156-297z m-67 535l-114 80c91 111 230 182 385 182 220 0 406-142 473-338l-135-34c-52 136-183 233-338 233-45 0-89-9-129-24-24-9-47-21-68-35-28-18-53-40-74-64z m771-238c0 31-3 62-8 91l-136-33c3-19 5-38 5-58 0-123-62-233-157-297l0-1c-20-14-42-25-65-35l0 1c-43-18-89-28-139-28-49 0-96 10-138 28l-79-117c34-17 69-29 107-38l0-1c71-16 147-17 223 1 78 18 147 53 205 101l-1 0c112 92 183 231 183 386z m-499 224c-124 0-224-100-224-224 0-123 100-224 224-224 123 0 223 101 223 224 0 124-100 224-223 224z m86-298c-4-28-22-45-49-54-7-2-14-3-21-5l0-33-28 0 0 33c-56 12-80 38-76 81l49 0c0-3 1-6 1-9 2-19 14-30 33-32 3 0 7 0 10 0 16 1 26 7 29 20 5 15 1 30-11 38-9 6-20 10-30 15-15 8-32 14-46 24-41 29-35 93 10 116 10 5 22 7 34 11l0 35 28 0 0-37c24-4 45-13 57-35 7-12 11-29 10-42l-49 0c-2 6-2 12-4 18-5 14-16 21-31 21-16-1-25-6-29-19-5-15-2-31 10-38 10-7 21-11 32-17 14-6 28-12 42-20 26-16 33-42 29-71z" horiz-adv-x="1000" />

<glyph glyph-name="movimientos" unicode="&#xe835;" d="M481 284c-32 4-58 33-58 68 0 36 28 66 63 68l86 185 39-17-66-200c6-11 10-23 10-36 0-16-5-30-14-42l43-137-42-17-61 128z m364 131l-150-39 250-155 157 260-144-37c-43 231-240 406-475 406-266 0-483-224-483-500 0-276 217-500 483-500 156 0 295 77 383 196l-163 0c-62-47-138-76-220-76-202 0-367 171-367 380 0 210 165 380 367 380 181 0 332-136 362-315z m-372 219l32 0 0 45-32 0 0-45z m-165-70l-23-23-31 32 23 24 31-33z m-136-226l44 0 0 33-44 0 0-33z m111-171l22-24-31-32-22 23 31 33z m187-141l32 0 0 46-32 0 0-46z m197 115l22 23 32-32-23-23-31 32z m25 397l-23 24 32 32 22-23-31-33z" horiz-adv-x="1108" />

<glyph glyph-name="documentos" unicode="&#xe836;" d="M511 850l-409 0c-56 0-101-45-101-100l-1-800c0-55 46-100 102-100l614 0c56 0 102 45 102 100l0 600-307 300 0 0z m103-800l-409 0 0 100 409 0 0-100 0 0z m0 200l-409 0 0 100 409 0 0-100 0 0z m-154 250l0 275 282-275-282 0 0 0z" horiz-adv-x="820" />

<glyph glyph-name="mercado" unicode="&#xe837;" d="M381 192c-11 0-20 4-27 11-14 14-15 37-2 52l45 53c-8 3-16 4-25 4-49 0-89-40-89-89 0-49 40-89 89-89 49 0 89 40 89 89 0 8-1 16-3 23l-53-45c-7-6-15-9-24-9z m137 31c0-80-66-146-146-146-80 0-146 66-146 146 0 80 66 146 146 146 23 0 45-6 64-15l57 67c-35 22-77 34-121 34-128 0-232-104-232-232 0-128 104-232 232-232 128 0 232 104 232 232 0 44-12 85-33 120l-67-58c9-18 14-40 14-62z m92 153c29-44 45-96 45-153 0-156-127-283-283-283-156 0-283 127-283 283 0 156 127 283 283 283 57 0 110-17 155-46l51 60 0 10c-59 40-130 63-206 63-204 0-370-166-370-370 0-204 166-370 370-370 204 0 370 166 370 370 0 76-23 146-62 205l-10 0-60-52z m196 256l-25 25 0 187-178-178 1-155 0 0-233-273c-4-5-3-12 1-16 2-3 5-4 9-4 2 0 5 1 7 3l273 233 0 0 154 0 178 178-187 0z" horiz-adv-x="1000" />

<glyph glyph-name="empresa" unicode="&#xe838;" d="M539 628l0 222-539 0 0-1000 1077 0 0 778-538 0 0 0z m-324-667l-107 0 0 111 107 0 0-111 0 0z m0 222l-107 0 0 111 107 0 0-111 0 0z m0 223l-107 0 0 111 107 0 0-111 0 0z m0 222l-107 0 0 111 107 0 0-111 0 0z m216-667l-108 0 0 111 108 0 0-111 0 0z m0 222l-108 0 0 111 108 0 0-111 0 0z m0 223l-108 0 0 111 108 0 0-111 0 0z m0 222l-108 0 0 111 108 0 0-111 0 0z m538-667l-430 0 0 111 107 0 0 111-107 0 0 111 107 0 0 112-107 0 0 111 430 0 0-556 0 0z m-107 445l-108 0 0-112 108 0 0 112 0 0z m0-223l-108 0 0-111 108 0 0 111 0 0z" horiz-adv-x="1081" />

<glyph glyph-name="asdasdasd-01" unicode="&#xe839;" d="M379 619h148v135h-148v-135z m0-336h148v134h-148v-134z m0-337h148v135h-148v-135z m230 673h883v135h-883v-135z m0-336h883v134h-883v-134z m0-337h883v135h-883v-135z" horiz-adv-x="1872" />

<glyph glyph-name="autorizaciones" unicode="&#xe83a;" d="M889 850l-778 0c-62 0-110-50-110-111l-1-778c0-61 49-111 111-111l778 0c61 0 111 50 111 111l0 778c0 61-50 111-111 111l0 0z m0-667l-222 0c0-92-75-166-167-166-92 0-167 74-167 166l-222 0 0 556 778 0 0-556 0 0z m-167 278l-111 0 0 167-222 0 0-167-111 0 222-222 222 222 0 0z" horiz-adv-x="1000" />

<glyph glyph-name="bancologo" unicode="&#xe83b;" d="M4516 795l10 0c-8-19-136-80-185-137-76-87-126-135-118-271 5-79 67-195 139-237 23-13 93-52 159-55 96-4 57 15 71 8l0 572c0 7-17 45-33 45-5 0-12-9-12-15l0-394c0-15-14-36-81-81-68-45-89-61-96-59 1 4 12 20 16 24l0 411c0 41 59 65 111 104 86 65 132 80 133 80l21 0c57 0 92-68 99-75 1-1 16-6 21-12l33 0c10 0 34 14 48 12-39-34-160-111-163-111l-19 0c-9 0-22 13-38 21l0-515c7-1 6 0 9 0 24 0 110 62 114 68l7 0 0-16c-1-1-35-66-36-67-73-84-156-126-274-127-206-1-353 149-368 380-16 231 146 421 338 433 27 2 61 0 66 0 0 0 26 13 28 14l0 0z m1325-376l108-111-107-69-1 180z m-513 93l2 0 74-73 0-336 45-42-86-83-80 80 0 336-38 36 83 82z m579-13c5 0 154-163 156-170l-224-158 0-64 127-57c0 0 67 8 90 29l34-9c-3-4-156-98-183-98-6 0-120 44-168 76l0 362c0 16 168 89 168 89l0 0z m-581 236l2 0 80-81 0-2-82-83-83 83 83 83z m-353 0l0-343 123 120 93-92 0-435-116-113-3 0 0 489-45 43-52-45 0-258 45-43 0-2-82-83-81 81 0 562 118 116 0 3z m655-640l43-40-85-80-81 80 0 544 123 120 0-624z m-2132 329l113-118-113-83 0 201z m-421 7l114-52 0-323-3 0-111 49 0 326z m490 74l153-170-224-166 0-45c0-9 132-70 132-70 0 0 66 45 95 28-2-3-159-105-159-105l-168 74 0 373 171 81z m-438 217c7 0 39-12 90-38 28-14 78-24 78-49l0-587-156-73-172 83 0 371 165 73c6 0 59-21 59-21l0 118-138 59c-22-1-49-23-76-27l6 23c0 0 124 68 144 68l0 0z m-2153-457l156-78 0-146-156 72 0 152z m1358 167l110-52 0-324-111 49 1 327z m-1266 77c115-58 165-65 165-90l0-303 74-73-69-66c-50 41-68 59-68 59l-126-63-172 79 0 199 168 83 92-38 0 83-147 51-74-9-4 12 161 76z m931-9l185-78c-9-10-65-52-85-57 0 0-151 59-154 60l0-308 127-63c0 0 73 25 90 25 2 0 6 0 10 0l0-7-144-94-19 0-182 83 0 356 172 83z m-390 13l102-101 0-312 47-48-78-75-83 78 0 291c-1 1-51 51-61 54l-57-52 0-251 43-42-81-78-73 71 0 314c0 0-35 29-50 47l100 102 97-92 94 94z m776-10l167-83 0-364-158-78-170 73 0 381 161 71z m-1806-102c7-2 49-27 49-45l0-272c-11-5-2 0-9 0-15 0-40 12-40 26l0 291z m0 279c0 0 75-83 75-133 0-37-29-52-75-80l0 213z m54 163c29 0 46-31 95-95 12-15 68-84 68-118l0-26c0-67-177-135-177-163 0-19 93-10 135-38 39-26 56-82 56-113l0-81c0-48-65-66-146-127-36-27-157-109-166-109 0 0-138 76-205 76l-90 0c-38 0-130-33-137-33 0 0 139 137 281 137l95 0c19 0 86-28 104-33l0 600c0 6-8 17-19 17-26 0-45-48-45-50l0-357c0-16-62-64-95-83-49-28-81-56-111-71l0 7c0 0 26 29 26 45l0 388c0 5 42 57 156 123 67 38 134 104 175 104l0 0z m-378 7l45 0c32 0 142-31 142-31l19 0c7 0 19 6 23 10 4-1 6-2 10-5l-187-132c0 0-57-28-57-55l0-333-184-128c2 18 26 34 26 59l0 329c0 25 177 118 177 144 0 26-104 47-104 47-33 2-47 2-80 0-33-1-70-21-83-21 40 27 148 116 253 116l0 0z" horiz-adv-x="6111" />

<glyph glyph-name="marcador_resumen" unicode="&#xe842;" d="M671-139c0-9-11-14-19-8l-24 20c-6 5-11 9-16 13l-4 3c-56 48-112 95-168 142-20 17-41 34-61 51-2 2-3 3-5 5-3 1-5 3-7 5-3 2-6 4-9 5-1 1-1 1-2 2-3 1-5 2-8 3-1 0-2 1-3 1-2 1-4 1-6 1-1 0-2 0-4 0-1 0-2 0-4 0-2 0-4 0-6-1 0 0-1-1-2-1-3-1-5-2-8-3-1-1-2-1-2-2-3-1-6-3-9-5-2-2-4-4-7-5-2-2-3-3-5-5-21-17-41-34-61-51-46-38-165-137-212-175-7-7-19-1-19 9l0 57 0 433c0 148 0 296 0 444 0 41 11 51 52 51 49 0 97 0 146 0l275 0c49 0 97 0 145 0 42 0 53-10 53-51l0-54c0 0 0-884 0-884z m-148 845l-387 0c-30 0-55-25-55-55l0-387c0-30 25-55 55-55l387 0c30 0 55 25 55 55l0 387c0 30-25 55-55 55z m-331-193l55 0 0-193-55 0 0 193z m110 83l55 0 0-276-55 0 0 276z m110-166l55 0 0-110-55 0 0 110z" horiz-adv-x="676" />

<glyph glyph-name="marcador_patrimonio" unicode="&#xe843;" d="M671-139c0-9-11-14-19-8l-24 20c-6 5-11 9-16 13l-4 3c-56 48-112 95-168 142-20 17-41 34-61 51-2 2-3 3-5 5-3 1-5 3-7 5-3 2-6 4-9 5-1 1-1 1-2 2-3 1-5 2-8 3-1 0-2 1-3 1-2 1-4 1-6 1-1 0-2 0-4 0-1 0-2 0-4 0-2 0-4 0-6-1 0 0-1-1-2-1-3-1-5-2-8-3-1-1-2-1-2-2-3-1-6-3-9-5-2-2-4-4-7-5-2-2-3-3-5-5-21-17-41-34-61-51-46-38-165-137-212-175-7-7-19-1-19 9l0 57 0 433c0 148 0 296 0 444 0 41 11 51 52 51 49 0 97 0 146 0l275 0c49 0 97 0 145 0 42 0 53-10 53-51l0-54c0 0 0-884 0-884z m-452 438l-43-63c-72 49-119 132-119 226 0 51 14 100 39 141l63-44c-16-29-26-62-26-97 0-67 34-127 86-163z m-37 293l-63 44c51 61 127 100 212 100 120 0 222-78 259-186l-74-18c-29 75-101 128-185 128-25 0-49-5-71-14-13-5-26-11-37-19-16-10-29-22-41-35z m423-130c0 17-2 34-5 50l-74-19c2-10 2-20 2-31 0-68-34-128-86-163l0 0c-11-8-22-14-35-20l0 1c-24-10-49-16-76-16-27 0-53 6-76 16l-43-64c18-9 38-16 58-21l0 0c39-9 81-10 122 0 43 10 81 29 113 55l-1 0c62 50 101 127 101 212z m-274 123c-68 0-123-56-123-123 0-68 55-123 123-123 68 0 123 55 123 123 0 67-55 123-123 123z m47-164c-2-15-12-25-27-29-3-1-7-2-11-3l0-18-15 0 0 18c-31 7-44 21-42 44l27 0c0-2 0-3 0-5 2-10 8-16 18-17 2 0 4 0 6 0 8 0 14 4 16 11 3 8 0 16-6 21-5 3-11 5-17 8-8 4-17 7-25 13-22 16-19 51 6 63 5 3 11 4 18 7l0 19 15 0 0-20c14-3 25-8 32-20 4-6 6-16 5-23l-27 0c0 4-1 7-2 10-2 8-8 11-17 11-8 0-13-3-15-10-3-8-1-17 5-21 5-3 12-6 18-9 7-3 15-6 22-11 15-9 18-23 16-39z" horiz-adv-x="676" />

<glyph glyph-name="marcador_notificaciones" unicode="&#xe844;" d="M671-139c0-9-11-14-19-8l-24 20c-6 5-11 9-16 13l-4 3c-56 48-112 95-168 142-20 17-41 34-61 51-2 2-3 3-5 5-3 1-5 3-7 5-3 2-6 4-9 5-1 1-1 1-2 2-3 1-5 2-8 3-1 0-2 1-3 1-2 1-4 1-6 1-1 0-2 0-4 0-1 0-2 0-4 0-2 0-4 0-6-1 0 0-1-1-2-1-3-1-5-2-8-3-1-1-2-1-2-2-3-1-6-3-9-5-2-2-4-4-7-5-2-2-3-3-5-5-21-17-41-34-61-51-46-38-165-137-212-175-7-7-19-1-19 9l0 57 0 433c0 148 0 296 0 444 0 41 11 51 52 51 49 0 97 0 146 0l275 0c49 0 97 0 145 0 42 0 53-10 53-51l0-54c0 0 0-884 0-884z m-345 344c25 0 45 22 45 47l-90 0c0-25 20-47 45-47z m147 142l0 130c0 72-48 133-113 149l0 16c0 20-15 35-34 35-19 0-34-15-34-35l0-16c-64-16-112-77-112-149l0-130-46-47 0-24 384 0 0 24-45 47z" horiz-adv-x="676" />

<glyph glyph-name="marcador_movimientos" unicode="&#xe845;" d="M303 424c-16 2-29 17-29 35 0 19 14 34 32 35l44 96 20-9-34-103c3-6 5-12 5-19 0-8-3-15-7-21l22-71-22-9-31 66z m186 68l-77-20 128-80 80 134-74-19c-21 119-122 209-242 209-136 0-246-116-246-258 0-142 110-257 246-257 80 0 151 40 196 101l-84 0c-31-25-70-39-112-39-103 0-187 87-187 195 0 108 84 196 187 196 93 0 170-70 185-162z m182-631c0-9-11-14-19-8l-24 20c-6 5-11 9-16 13l-4 3c-56 48-112 95-168 142-20 17-41 34-61 51-2 2-3 3-5 5-3 1-5 3-7 5-3 2-6 4-9 5-1 1-1 1-2 2-3 1-5 2-8 3-1 0-2 1-3 1-2 1-4 1-6 1-1 0-2 0-4 0-1 0-2 0-4 0-2 0-4 0-6-1 0 0-1-1-2-1-3-1-5-2-8-3-1-1-2-1-2-2-3-1-6-3-9-5-2-2-4-4-7-5-2-2-3-3-5-5-21-17-41-34-61-51-46-38-165-137-212-175-7-7-19-1-19 9l0 57 0 433c0 148 0 296 0 444 0 41 11 51 52 51 49 0 97 0 146 0l275 0c49 0 97 0 145 0 42 0 53-10 53-51l0-54c0 0 0-884 0-884z m-372 743l16 0 0 24-16 0 0-24z m-84-35l-12-12-16 16 12 12 16-16z m-70-117l23 0 0 17-23 0 0-17z m57-88l11-12-16-17-11 12 16 17z m95-73l17 0 0 24-17 0 0-24z m101 60l12 12 15-17-11-12-16 17z m13 204l-12 12 16 17 12-12-16-17z" horiz-adv-x="676" />

<glyph glyph-name="marcador_moneda_extranjera" unicode="&#xe846;" d="M671-139c0-9-11-14-19-8l-24 20c-6 5-11 9-16 13l-4 3c-56 48-112 95-168 142-20 17-41 34-61 51-2 2-3 3-5 5-3 1-5 3-7 5-3 2-6 4-9 5-1 1-1 1-2 2-3 1-5 2-8 3-1 0-2 1-3 1-2 1-4 1-6 1-1 0-2 0-4 0-1 0-2 0-4 0-2 0-4 0-6-1 0 0-1-1-2-1-3-1-5-2-8-3-1-1-2-1-2-2-3-1-6-3-9-5-2-2-4-4-7-5-2-2-3-3-5-5-21-17-41-34-61-51-46-38-165-137-212-175-7-7-19-1-19 9l0 57 0 433c0 148 0 296 0 444 0 41 11 51 52 51 49 0 97 0 146 0l275 0c49 0 97 0 145 0 42 0 53-10 53-51l0-54c0 0 0-884 0-884z m-484 855c-82 0-149-67-149-148 0-82 67-149 149-149 82 0 148 67 148 149 0 81-66 148-148 148z m-91-170l19 0 0-1c3-13 9-25 17-35 14-14 33-22 54-22 18 0 32 5 40 10l-4 28c-7-3-18-6-29-6-13 0-24 4-31 12-4 4-6 8-7 12l-1 2 59 0 0 18-63 0 0 1c0 4 0 6 0 8 0 2 0 4 0 7l0 2 63 0 0 17-59 0 1 2c1 5 4 10 7 14 7 8 18 12 31 12 12 0 20-3 25-5l7 29c-5 2-17 7-36 7-22 0-42-8-56-24-9-9-15-21-18-34l0-1-19 0 0-17 16 0 0-2c0-3 0-6 0-8 0 0 0-1 0-2 0-1 0-3 0-4l0-2-16 0 0-18 0 0z m231-171c0-81 66-148 148-148 82 0 148 67 148 148 0 82-66 148-148 148-82 0-148-66-148-148z m206-38l-43 0 0 19 43 0 0 18-34 0 43 73-39 0-16-37c-4-8-6-16-9-23l-4-8-2 0-1 1c-2 6-4 12-7 18-1 4-3 8-4 12l-16 37-40 0 41-73-34 0 0-18 42 0 0-19-42 0 0-18 42 0 0-32 37 0 0 32 43 0 0 18z" horiz-adv-x="676" />

<glyph glyph-name="marcador_fondos_mutuos" unicode="&#xe847;" d="M671-139c0-9-11-14-19-8l-24 20c-6 5-11 9-16 13l-4 3c-56 48-112 95-168 142-20 17-41 34-61 51-2 2-3 3-5 5-3 1-5 3-7 5-3 2-6 4-9 5-1 1-1 1-2 2-3 1-5 2-8 3-1 0-2 1-3 1-2 1-4 1-6 1-1 0-2 0-4 0-1 0-2 0-4 0-2 0-4 0-6-1 0 0-1-1-2-1-3-1-5-2-8-3-1-1-2-1-2-2-3-1-6-3-9-5-2-2-4-4-7-5-2-2-3-3-5-5-21-17-41-34-61-51-46-38-165-137-212-175-7-7-19-1-19 9l0 57 0 433c0 148 0 296 0 444 0 41 11 51 52 51 49 0 97 0 146 0l275 0c49 0 97 0 145 0 42 0 53-10 53-51l0-54c0 0 0-884 0-884z m-104 664c-23 0-43-15-50-35l-49 0c-3 22-12 42-25 60l34 34c20-10 45-6 61 10 21 21 21 55 0 75-21 21-54 21-75 0-16-16-20-40-10-60l-35-34c-17 13-37 22-59 25l0 49c20 7 35 27 35 49 0 29-24 53-53 53-29 0-53-24-53-53 0-23 15-43 36-50l0-48c-22-3-43-12-60-25l-35 34c10 20 6 44-10 60-21 21-54 21-75 0-20-20-20-54 0-75 16-16 41-19 61-10l34-34c-13-18-22-38-25-60l-48 0c-8 20-28 35-50 35-29 0-53-24-53-53 0-29 24-53 53-53 23 0 43 15 50 36l48 0c3-23 12-44 25-60l-34-35c-20 9-44 6-60-10-21-21-21-54 0-75 21-21 54-21 75 0 16 16 19 41 10 61l35 34c17-13 37-22 60-25l0-49c-21-7-36-27-36-50 0-29 24-53 53-53 30 0 53 24 53 53 0 23-14 43-35 50l0 49c22 3 43 12 60 25l34-34c-9-20-6-45 11-61 20-21 54-21 75 0 20 21 20 54 0 75-17 16-41 19-60 10l-35 35c13 17 22 38 25 60l48 0c7-21 27-36 50-36 30 0 53 24 53 53 0 29-26 53-54 53z m-194-97c-5-6-11-10-19-12-3-1-4-2-4-6l0-9c0-3-2-5-5-5l-10 0c-3 0-5 2-5 5l0 7c0 5 0 6-5 6-6 1-13 3-19 6-5 2-5 3-4 8 1 4 2 8 3 11 1 4 2 5 6 3 6-3 14-5 21-6 4-1 9 0 14 1 8 4 9 14 2 19-2 2-5 3-8 4-6 3-14 6-21 10-11 6-18 16-17 29 1 15 9 25 23 29 6 3 6 2 6 8l0 7c0 4 1 5 5 5l4 0c10 0 10 0 10-10 0-7 0-7 7-8 5-1 10-2 15-5 3-1 4-2 3-5-1-4-2-8-3-13-2-4-3-5-7-3-7 4-15 5-23 5-3 0-4-1-7-1-7-3-8-11-2-17 3-2 6-4 10-5 7-3 13-5 19-9 19-9 24-33 11-49z" horiz-adv-x="676" />

<glyph glyph-name="marcador_empresa" unicode="&#xe849;" d="M671-139c0-9-11-14-19-8l-24 20c-6 5-11 9-16 13l-4 3c-56 48-112 95-168 142-20 17-41 34-61 51-2 2-3 3-5 5-3 1-5 3-7 5-3 2-6 4-9 5-1 1-1 1-2 2-3 1-5 2-8 3-1 0-2 1-3 1-2 1-4 1-6 1-1 0-2 0-4 0-1 0-2 0-4 0-2 0-4 0-6-1 0 0-1-1-2-1-3-1-5-2-8-3-1-1-2-1-2-2-3-1-6-3-9-5-2-2-4-4-7-5-2-2-3-3-5-5-21-17-41-34-61-51-46-38-165-137-212-175-7-7-19-1-19 9l0 57 0 433c0 148 0 296 0 444 0 41 11 51 52 51 49 0 97 0 146 0l275 0c49 0 97 0 145 0 42 0 53-10 53-51l0-54c0 0 0-884 0-884z m-344 681l0 83-204 0 0-375 409 0 0 292-205 0z m164-250l-164 0 0 41 41 0 0 42-41 0 0 42 41 0 0 41-41 0 0 42 164 0 0-208z m-205 250l-40 0 0 41 40 0 0-41z m0-84l-40 0 0 42 40 0 0-42z m0-83l-40 0 0 42 40 0 0-42z m0-83l-40 0 0 41 40 0 0-41z m-81 250l-41 0 0 41 41 0 0-41z m0-84l-41 0 0 42 41 0 0-42z m0-83l-41 0 0 42 41 0 0-42z m0-83l-41 0 0 41 41 0 0-41z m245 83l-41 0 0-42 41 0 0 42z m0 83l-41 0 0-41 41 0 0 41z" horiz-adv-x="676" />

<glyph glyph-name="marcador_documentos" unicode="&#xe84a;" d="M671-139c0-9-11-14-19-8l-24 20c-6 5-11 9-16 13l-4 3c-56 48-112 95-168 142-20 17-41 34-61 51-2 2-3 3-5 5-3 1-5 3-7 5-3 2-6 4-9 5-1 1-1 1-2 2-3 1-5 2-8 3-1 0-2 1-3 1-2 1-4 1-6 1-1 0-2 0-4 0-1 0-2 0-4 0-2 0-4 0-6-1 0 0-1-1-2-1-3-1-5-2-8-3-1-1-2-1-2-2-3-1-6-3-9-5-2-2-4-4-7-5-2-2-3-3-5-5-21-17-41-34-61-51-46-38-165-137-212-175-7-7-19-1-19 9l0 57 0 433c0 148 0 296 0 444 0 41 11 51 52 51 49 0 97 0 146 0l275 0c49 0 97 0 145 0 42 0 53-10 53-51l0-54c0 0 0-884 0-884z m-283 818l-204 0c-28 0-50-23-50-50l-1-398c0-28 23-50 51-50l306 0c28 0 51 22 51 50l0 298-153 150z m-26-174l0 136 140-136-140 0z m77-125l-204 0 0 50 204 0 0-50z m0-99l-204 0 0 49 204 0 0-49z" horiz-adv-x="676" />

<glyph glyph-name="marcador_cartera_activa" unicode="&#xe84b;" d="M671-139c0-9-11-14-19-8l-24 20c-6 5-11 9-16 13l-4 3c-56 48-112 95-168 142-20 17-41 34-61 51-2 2-3 3-5 5-3 1-5 3-7 5-3 2-6 4-9 5-1 1-1 1-2 2-3 1-5 2-8 3-1 0-2 1-3 1-2 1-4 1-6 1-1 0-2 0-4 0-1 0-2 0-4 0-2 0-4 0-6-1 0 0-1-1-2-1-3-1-5-2-8-3-1-1-2-1-2-2-3-1-6-3-9-5-2-2-4-4-7-5-2-2-3-3-5-5-21-17-41-34-61-51-46-38-165-137-212-175-7-7-19-1-19 9l0 57 0 433c0 148 0 296 0 444 0 41 11 51 52 51 49 0 97 0 146 0l275 0c49 0 97 0 145 0 42 0 53-10 53-51l0-54c0 0 0-884 0-884z m-135 736l-107 0 0 25c0 31-24 56-55 56l-61 0c-31 0-56-25-56-56l0-25-106 0c-31 0-55-25-55-56l0-238c0-30 24-55 55-55l385 0c30 0 55 25 55 55l0 238c0 31-25 56-55 56z m-123-283l75 0 0 198-75 0 0-198z m-105 0l75 0 0 149-75 0 0-149z m-105 0l75 0 0 99-75 0 0-99z m191 283l-101 0 0 25c0 11 9 20 20 20l61 0c11 0 20-9 20-20l0-25z" horiz-adv-x="676" />

<glyph glyph-name="marcador_caja_internet" unicode="&#xe84c;" d="M671-139c0-9-11-14-19-8l-24 20c-6 5-11 9-16 13l-4 3c-56 48-112 95-168 142-20 17-41 34-61 51-2 2-3 3-5 5-3 1-5 3-7 5-3 2-6 4-9 5-1 1-1 1-2 2-3 1-5 2-8 3-1 0-2 1-3 1-2 1-4 1-6 1-1 0-2 0-4 0-1 0-2 0-4 0-2 0-4 0-6-1 0 0-1-1-2-1-3-1-5-2-8-3-1-1-2-1-2-2-3-1-6-3-9-5-2-2-4-4-7-5-2-2-3-3-5-5-21-17-41-34-61-51-46-38-165-137-212-175-7-7-19-1-19 9l0 57 0 433c0 148 0 296 0 444 0 41 11 51 52 51 49 0 97 0 146 0l275 0c49 0 97 0 145 0 42 0 53-10 53-51l0-54c0 0 0-884 0-884z m-254 878c-11 16-34 20-50 8l-100-72 158 53-8 11z m70-55c-5 15-19 24-34 24-4 0-8 0-12-1 0-1 0-1 0-1l-123-41 175 0-6 19z m1-308c-47 0-85 38-85 85 0 46 38 84 85 84l29 0c9 0 17-1 24-4l0 63c0 0 0 1 0 2 0 7-2 13-6 18-4 6-11 11-18 14-4 1-8 2-12 2l-353 0c-11 0-20-5-27-12-4-5-7-10-9-16 0-3-1-6-1-8l0-298c0-20 16-36 36-36 1 0 1 0 1 0l353 0c20 0 36 16 36 36l0 74c-7-2-15-4-24-4l-29 0z m29 143l-29 0c-32 0-59-26-59-58 0-33 27-59 59-59l29 0c9 0 17 2 24 5 21 9 35 30 35 54 0 23-14 44-35 53-7 3-15 5-24 5z" horiz-adv-x="676" />

<glyph glyph-name="marcador_beneficiarios" unicode="&#xe84d;" d="M671-139c0-9-11-14-19-8l-24 20c-6 5-11 9-16 13l-4 3c-56 48-112 95-168 142-20 17-41 34-61 51-2 2-3 3-5 5-3 1-5 3-7 5-3 2-6 4-9 5-1 1-1 1-2 2-3 1-5 2-8 3-1 0-2 1-3 1-2 1-4 1-6 1-1 0-2 0-4 0-1 0-2 0-4 0-2 0-4 0-6-1 0 0-1-1-2-1-3-1-5-2-8-3-1-1-2-1-2-2-3-1-6-3-9-5-2-2-4-4-7-5-2-2-3-3-5-5-21-17-41-34-61-51-46-38-165-137-212-175-7-7-19-1-19 9l0 57 0 433c0 148 0 296 0 444 0 41 11 51 52 51 49 0 97 0 146 0l275 0c49 0 97 0 145 0 42 0 53-10 53-51l0-54c0 0 0-884 0-884z m-441 603l-71 0 0 70-47 0 0-70-71 0 0-47 71 0 0-70 47 0 0 70 71 0 0 47 0 0z m236-20c39 0 71 31 71 70 0 39-32 70-71 70-7 0-15-1-21-3 13-19 21-42 21-67 0-25-8-47-21-66 6-3 14-4 21-4l0 0z m-127 0c39 0 71 31 71 70 0 39-32 70-71 70-39 0-71-31-71-70 0-39 32-70 71-70l0 0z m156-36c20-17 33-39 33-67l0-46 71 0 0 46c0 36-56 58-104 67l0 0z m-161 0c-47 0-142-24-142-70l0-47 284 0 0 47c0 46-95 70-142 70l0 0z" horiz-adv-x="676" />

<glyph glyph-name="marcador_banchile_pay" unicode="&#xe84e;" d="M671-139c0-9-11-14-19-8l-24 20c-6 5-11 9-16 13l-4 3c-56 48-112 95-168 142-20 17-41 34-61 51-2 2-3 3-5 5-3 1-5 3-7 5-3 2-6 4-9 5-1 1-1 1-2 2-3 1-5 2-8 3-1 0-2 1-3 1-2 1-4 1-6 1-1 0-2 0-4 0-1 0-2 0-4 0-2 0-4 0-6-1 0 0-1-1-2-1-3-1-5-2-8-3-1-1-2-1-2-2-3-1-6-3-9-5-2-2-4-4-7-5-2-2-3-3-5-5-21-17-41-34-61-51-46-38-165-137-212-175-7-7-19-1-19 9l0 57 0 433c0 148 0 296 0 444 0 41 11 51 52 51 49 0 97 0 146 0l275 0c49 0 97 0 145 0 42 0 53-10 53-51l0-54c0 0 0-884 0-884z m-219 720c0-11 85-117 105-142 5 2 11 1 15-3l20-19c5-6 5-14 0-19l-75-76c-6-5-14-5-19 0l-20 20c-4 4-5 10-2 15l-8 8c-21 1-40 6-55 12l-65-65c-19-19-51-19-70 0l-206 206c-9 9-14 22-14 35 0 13 5 26 14 35l94 94c19 19 51 19 70 0l74-74c32 2 95-2 101-1 26 3 41-26 41-26z m-63-193c-3 2-5 2-5 2l-97-3c-34 1-39 23-39 23 1 32 73 34 73 34 0 0 86 18 72 46 0 0 0 1-1 1l-173 173c-10 10-26 10-36 0l-93-93c-5-5-8-11-8-18 0-7 3-13 8-18l205-205c10-10 26-10 36 0l58 58z m-140 69c-1 3-3 6-5 9-1 3-1 4 3 5 6 2 11 5 16 9 4 3 6 6 8 10 3 7-2 14-10 13-3 0-5-1-8-2-6-2-12-6-19-7-11-3-21-2-28 7-9 10-10 21-4 33 2 4 2 4-2 8-1 1-2 3-3 4-3 3-3 4 0 7 0 0 1 1 2 2 6 6 6 6 12 0 4-4 4-4 9-1 4 3 8 5 12 7 2 1 4 0 5-2 2-3 4-6 5-10 2-3 2-4-2-5-7-3-12-7-17-12-1-1-2-3-3-5-3-6 2-11 8-11 4 1 7 2 10 3 6 2 11 5 17 6 18 6 36-6 38-24 0-7-1-13-4-19-2-3-2-4 0-6 3-2 4-4 7-7 1-1 1-3 0-5-3-2-5-4-7-7-2-1-4-1-6 1-1 1-3 2-4 4-3 3-4 3-7 1-5-4-10-7-15-9-5-1-6-1-8 3z" horiz-adv-x="676" />

<glyph glyph-name="marcador_autorizaciones" unicode="&#xe84f;" d="M671-139c0-9-11-14-19-8l-24 20c-6 5-11 9-16 13l-4 3c-56 48-112 95-168 142-20 17-41 34-61 51-2 2-3 3-5 5-3 1-5 3-7 5-3 2-6 4-9 5-1 1-1 1-2 2-3 1-5 2-8 3-1 0-2 1-3 1-2 1-4 1-6 1-1 0-2 0-4 0-1 0-2 0-4 0-2 0-4 0-6-1 0 0-1-1-2-1-3-1-5-2-8-3-1-1-2-1-2-2-3-1-6-3-9-5-2-2-4-4-7-5-2-2-3-3-5-5-21-17-41-34-61-51-46-38-165-137-212-175-7-7-19-1-19 9l0 57 0 433c0 148 0 296 0 444 0 41 11 51 52 51 49 0 97 0 146 0l275 0c49 0 97 0 145 0 42 0 53-10 53-51l0-54c0 0 0-884 0-884z m-135 866l-398 0c-31 0-56-25-56-56l0-398c0-31 25-57 56-57l398 0c32 0 57 26 57 57l0 398c0 31-25 56-57 56z m-113-341c0-47-38-85-85-85-48 0-86 38-86 85l-114 0 0 285 398 0 0-285-113 0z m28 142l-57 0 0 86-113 0 0-86-57 0 114-113 113 113z" horiz-adv-x="676" />

<glyph glyph-name="marcador_asesoria" unicode="&#xe850;" d="M671-139c0-9-11-14-19-8l-24 20c-6 5-11 9-16 13l-4 3c-56 48-112 95-168 142-20 17-41 34-61 51-2 2-3 3-5 5-3 1-5 3-7 5-3 2-6 4-9 5-1 1-1 1-2 2-3 1-5 2-8 3-1 0-2 1-3 1-2 1-4 1-6 1-1 0-2 0-4 0-1 0-2 0-4 0-2 0-4 0-6-1 0 0-1-1-2-1-3-1-5-2-8-3-1-1-2-1-2-2-3-1-6-3-9-5-2-2-4-4-7-5-2-2-3-3-5-5-21-17-41-34-61-51-46-38-165-137-212-175-7-7-19-1-19 9l0 57 0 433c0 148 0 296 0 444 0 41 11 51 52 51 49 0 97 0 146 0l275 0c49 0 97 0 145 0 42 0 53-10 53-51l0-54c0 0 0-884 0-884z m-209 523c42 0 75 32 75 73 0 40-33 73-75 73-41 0-74-33-74-73 0-41 33-73 74-73z m-150-125l0-49 298 0 0 49c0 49-100 73-149 73-50 0-149-24-149-73z m-35 109c1 0 2 0 3 1 3 1 4 3 4 6l0 47 39 0c16 0 29 13 29 28l0 129c0 15-13 28-29 28l-232 0c-16 0-28-12-28-28l0-129c0-15 12-28 27-28l0 0 118 0 64-52c2-1 3-2 5-2z m-43 120c-2-12-9-18-20-22-2 0-5-1-8-1l0-14-11 0 0 13c-21 5-31 15-29 32l19 0c0-1 0-3 0-4 1-7 6-11 13-12 1 0 3 0 4 0 6 0 10 3 11 8 2 5 1 12-4 15-4 2-8 4-12 6-6 3-12 5-18 9-16 11-13 36 4 45 4 2 9 3 13 5l0 13 11 0 0-14c10-2 18-6 23-14 2-5 4-11 3-17l-19 0c0 3-1 5-1 8-2 5-6 8-12 8-6 0-10-3-11-8-2-5-1-11 3-14 4-3 9-5 13-7 5-3 11-5 16-8 10-6 13-16 12-27z" horiz-adv-x="676" />

<glyph glyph-name="marcador_acciones" unicode="&#xe851;" d="M671-139c0-9-11-14-19-8l-24 20c-6 5-11 9-16 13l-4 3c-56 48-112 95-168 142-20 17-41 34-61 51-2 2-3 3-5 5-3 1-5 3-7 5-3 2-6 4-9 5-1 1-1 1-2 2-3 1-5 2-8 3-1 0-2 1-3 1-2 1-4 1-6 1-1 0-2 0-4 0-1 0-2 0-4 0-2 0-4 0-6-1 0 0-1-1-2-1-3-1-5-2-8-3-1-1-2-1-2-2-3-1-6-3-9-5-2-2-4-4-7-5-2-2-3-3-5-5-21-17-41-34-61-51-46-38-165-137-212-175-7-7-19-1-19 9l0 57 0 433c0 148 0 296 0 444 0 41 11 51 52 51 49 0 97 0 146 0l275 0c49 0 97 0 145 0 42 0 53-10 53-51l0-54c0 0 0-884 0-884z m-80 593c4 20 8 39 12 58 2 10-1 18-9 20-3 1-7 1-11 0-14-2-28-5-41-7-5-1-10-2-15-3-2-1-5-1-7-2-5-1-11-2-16-3-8-2-12-8-12-15 0-7 4-12 10-14 1 0 2-1 2-1 4 0 7 0 10 1 3 0 6 1 9 1 1 1 3 1 4 1 4 1 8 2 12 2l5 1c-66-60-141-97-225-108-53-7-109-4-166 8-15 3-45 11-45 11 0 0-8 4-15 6-10 4-17 3-22-5-2-4-2-8-1-12 1-3 3-7 9-10 6-2 11-6 17-8 7-2-7 2 9-2 40-12 81-19 121-21l1 0c4-1 8-1 12-1 5 0 9 0 13 0 4 0 8 0 12 0 4 0 8 0 12 0 4 0 8 0 12 1 4 0 8 0 12 0 3 1 7 1 11 2 4 0 8 0 12 1 4 1 8 1 11 2 4 0 8 1 12 2 4 0 8 1 11 2 4 1 8 2 11 3 4 1 8 2 12 3 3 1 7 2 11 3 3 1 7 2 11 3 3 1 7 3 11 4 3 1 7 3 10 4 4 1 7 3 11 4 3 2 7 3 11 5 3 2 7 3 10 5 3 2 7 3 10 5 4 2 7 4 11 6 3 2 6 4 10 6 3 2 6 4 10 6 3 2 7 4 10 6 3 2 6 5 10 7 3 2 6 5 9 7 4 3 7 5 10 7 3 3 6 6 10 8 2 2 10 10 19 20 0-1 0-1 0-1 0-1 0-2 0-2-1-4-2-7-3-10-1-7-3-14-4-21-2-9 3-17 11-19 8-2 16 3 18 12 1 2 1 3 1 4l4 18z m-74-75c-4-2-7-4-11-6-4-2-7-3-11-5-4-2-7-4-11-6-4-2-8-3-12-5-3-2-7-3-11-5-4-1-8-3-12-4-4-2-8-3-12-5-4-1-8-3-12-4-2-1-5-2-8-2l0-80c0 0 0 0 0 0l0-21 111 0 0 22c0 0 0 0 0 0l0 128c0 0 0 0 0 0-4-2-8-5-11-7z m-146-49c-36-8-73-12-111-13 0-14 0-26 0-37l0 0 0-39 111 0 0 39 0 0 0 50z m-180-14c-21 2-41 5-61 8-6 2-12 3-18 3-4 1-7 2-10 3 0-26 0-51 0-64l0-27 111 0 0 38 0 0c0 11 0 24 0 38-7 0-15 1-22 1z m-88 120c6-4 17-9 26-11 27-5 55-9 84-10 0 17 0 33 0 46l0 38-111 0 0-38c0-13 1-13 1-25z m157 100l0 0c0-33 0-78 0-124 8 0 15 1 23 1 31 2 60 7 88 14l0 109 0 0 0 39-111 0 0-39z m268 133l-110 0 0-21c-1-53-1-130-1-206 6 2 12 5 18 7 21 10 49 28 49 28 0 0-23 32 0 48 19 11 43 16 43 16 0 0 1 55 1 89l0 39z" horiz-adv-x="676" />

<glyph glyph-name="pendiente" unicode="&#xe852;" d="M521 699c0-84-68-151-151-151-84 0-151 67-151 151 0 83 67 151 151 151 83 0 151-68 151-151z m-261-296c0-71-58-129-129-129-71 0-129 58-129 129 0 71 58 129 129 129 71 0 129-58 129-129z m93-332c0-65-53-118-118-118-66 0-119 53-119 118 0 65 53 118 119 118 65 0 118-53 118-118z m279-118c0-56-45-101-101-101-55 0-100 45-100 101 0 55 45 100 100 100 56 0 101-45 101-100z m237 118c0-48-39-87-87-87-48 0-87 39-87 87 0 48 39 87 87 87 48 0 87-39 87-87z m95 216c0-40-33-73-74-73-40 0-73 33-73 73 0 41 33 74 73 74 41 0 74-33 74-74z m-47 211c0-30-23-54-53-54-30 0-54 24-54 54 0 29 24 53 54 53 30 0 53-24 53-53z m-134 147c0-22-19-40-41-40-23 0-41 18-41 40 0 23 18 41 41 41 22 0 41-18 41-41z" horiz-adv-x="964" />

<glyph glyph-name="a2-01-01" unicode="&#xe855;" d="M612 495a145 145 0 1 1 145-145 145 145 0 0 1-145 145z m0-387a242 242 0 1 0 242 242 242 242 0 0 0-242-242z m0 605a573 573 0 0 1-533-363 572 572 0 0 1 1065 0 573 573 0 0 1-532 363z" horiz-adv-x="1223" />

<glyph glyph-name="a1-01" unicode="&#xe856;" d="M997 531l-380-242-381 242v97l381-242 380 242v-97z m0 194h-761a96 96 0 0 1-95-97l0-580a96 96 0 0 1 95-97h761a96 96 0 0 1 96 97v580a96 96 0 0 1-96 97z" horiz-adv-x="1223" />

<glyph glyph-name="beneficiarios" unicode="&#xe85b;" d="M730 246c-117 0-350-57-350-171v-115h700v114c0 114-233 172-350 172z m386 0c49-42 81-95 81-163v-115h175v115c0 88-139 143-256 163z m-382 121a172 172 0 1 1-175 171 173 173 0 0 1 175-171z m291 0a172 172 0 1 1 0 343 178 178 0 0 1-53-8 279 279 0 0 0 53-164 285 285 0 0 0-53-163 178 178 0 0 1 53-8z m-591 92h-140v137h-92v-137h-140v-91h140v-137h92v137h140v91z" horiz-adv-x="1478" />

<glyph glyph-name="seleccion_fondos-02" unicode="&#xe85c;" d="M739 251c-118 0-356-59-356-175v-116h712v116c0 116-237 175-356 175z m393-19c48-42 81-96 81-165v-116h178v116c0 90-140 145-259 165z m-388 123a175 175 0 1 1-178 174 176 176 0 0 1 178-174z m296 0a175 175 0 1 1 0 349 180 180 0 0 1-54-9 283 283 0 0 0 53-166 289 289 0 0 0-53-167 180 180 0 0 1 54-7z m-950-13l-4-4 4-5 127-131 5-5 5 5 239 252 5 5-5 4-32 33-5 6-5-6-207-219h10l-95 98-5 5-5-5z" horiz-adv-x="1478" />

<glyph glyph-name="asesoria-02" unicode="&#xe85d;" d="M509 438a59 59 0 0 0-45-50c-6-2-12-2-19-4v-31h-26v31c-51 11-73 34-69 73h45c0-3 0-6 1-8a31 31 0 0 1 29-29h10a26 26 0 0 1 27 18 30 30 0 0 1-11 35c-8 6-18 9-27 14a331 331 0 0 0-43 22 63 63 0 0 0 10 106 243 243 0 0 0 31 10v33h25v-34a71 71 0 0 0 53-33 70 70 0 0 0 9-38h-45a143 143 0 0 1-4 17 27 27 0 0 1-28 19 25 25 0 0 1-26-17 30 30 0 0 1 9-35 243 243 0 0 1 29-15c12-7 26-11 38-19a61 61 0 0 0 27-65z m102-281a17 17 0 0 1 18 17v110h90a69 69 0 0 1 69 67v302a67 67 0 0 1-68 65h-546a63 63 0 0 1-65-65v-302a66 66 0 0 1 62-67h278l152-123a17 17 0 0 1 11-4z m106-118v-115h700v115c0 114-233 171-350 171s-350-57-350-171z m355 292a171 171 0 1 1-175 171 173 173 0 0 1 174-171z" horiz-adv-x="1478" />

<glyph glyph-name="toggle-02" unicode="&#xe85f;" d="M191 613h1096v133h-1096v-133z m0-330h1096v132h-1096v-132z m0-331h1096v132h-1096v-132z" horiz-adv-x="1478" />
</font>
</defs>
</svg>
