<?xml version="1.0" encoding="UTF-8" standalone="no"?>
<svg width="30px" height="30px" viewBox="0 0 30 30" version="1.1" xmlns="http://www.w3.org/2000/svg" xmlns:xlink="http://www.w3.org/1999/xlink">
    <!-- Generator: Sketch 42 (36781) - http://www.bohemiancoding.com/sketch -->
    <title>Shape</title>
    <desc>Created with Sketch.</desc>
    <defs></defs>
    <g id="Resumen-de-Inversiones" stroke="none" stroke-width="1" fill="none" fill-rule="evenodd">
        <g id="06_resumen-copy-3" transform="translate(-555.000000, -169.000000)" fill="#5B5B5B">
            <path d="M582.089783,181.167183 C583.637771,181.167183 585.03096,182.436533 585.03096,184.01548 C585.03096,185.594427 583.76161,186.863777 582.182663,186.863777 C580.944272,186.863777 579.860681,186.058824 579.489164,184.944272 L576.888545,184.944272 C576.733746,186.120743 576.26935,187.235294 575.557276,188.164087 L577.414861,190.021672 C578.467492,189.526316 579.767802,189.712074 580.634675,190.578947 C581.749226,191.693498 581.749226,193.489164 580.634675,194.603715 C579.520124,195.718266 577.724458,195.718266 576.609907,194.603715 C575.712074,193.736842 575.526316,192.405573 576.052632,191.352941 L574.195046,189.495356 C573.266254,190.20743 572.182663,190.702786 570.975232,190.857585 L570.975232,193.489164 C572.089783,193.860681 572.863777,194.913313 572.863777,196.151703 C572.863777,197.73065 571.594427,199 570.01548,199 C568.436533,199 567.167183,197.73065 567.167183,196.151703 C567.167183,194.913313 567.972136,193.829721 569.086687,193.458204 L569.086687,190.857585 C567.879257,190.671827 566.764706,190.20743 565.835913,189.495356 L563.978328,191.352941 C564.473684,192.405573 564.287926,193.736842 563.421053,194.603715 C562.306502,195.718266 560.510836,195.718266 559.396285,194.603715 C558.281734,193.489164 558.281734,191.693498 559.396285,190.578947 C560.263158,189.712074 561.563467,189.526316 562.616099,190.021672 L564.473684,188.164087 C563.76161,187.266254 563.297214,186.151703 563.142415,184.944272 L560.541796,184.944272 C560.139319,186.058824 559.086687,186.863777 557.848297,186.863777 C556.26935,186.863777 555,185.594427 555,184.01548 C555,182.436533 556.26935,181.167183 557.848297,181.167183 C559.055728,181.167183 560.108359,181.972136 560.510836,183.055728 L563.142415,183.055728 C563.297214,181.879257 563.76161,180.795666 564.473684,179.835913 L562.616099,177.978328 C561.563467,178.473684 560.232198,178.287926 559.365325,177.421053 C558.250774,176.306502 558.250774,174.510836 559.365325,173.396285 C560.479876,172.281734 562.275542,172.281734 563.390093,173.396285 C564.256966,174.263158 564.442724,175.563467 563.947368,176.616099 L565.804954,178.473684 C566.733746,177.76161 567.848297,177.297214 569.024768,177.142415 L569.024768,174.541796 C567.910217,174.139319 567.105263,173.086687 567.105263,171.848297 C567.105263,170.26935 568.374613,169 569.95356,169 C571.532508,169 572.801858,170.26935 572.801858,171.848297 C572.801858,173.055728 571.996904,174.108359 570.913313,174.510836 L570.913313,177.142415 C572.089783,177.297214 573.173375,177.79257 574.102167,178.473684 L575.959752,176.616099 C575.464396,175.563467 575.650155,174.263158 576.517028,173.396285 C577.631579,172.281734 579.427245,172.281734 580.541796,173.396285 C581.656347,174.510836 581.656347,176.306502 580.541796,177.421053 C579.674923,178.318885 578.343653,178.504644 577.291022,177.978328 L575.433437,179.835913 C576.145511,180.764706 576.640867,181.848297 576.795666,183.055728 L579.427245,183.055728 C579.798762,181.941176 580.851393,181.167183 582.089783,181.167183 Z M571.656347,186.368421 C572.368421,185.501548 572.089783,184.201238 571.068111,183.736842 C570.758514,183.551084 570.417957,183.427245 570.077399,183.272446 C569.860681,183.179567 569.674923,183.086687 569.520124,182.962848 C569.210526,182.684211 569.272446,182.250774 569.643963,182.095975 C569.767802,182.065015 569.860681,182.034056 569.98452,182.034056 C570.417957,182.003096 570.851393,182.095975 571.25387,182.281734 C571.470588,182.374613 571.532508,182.343653 571.594427,182.126935 C571.656347,181.879257 571.718266,181.662539 571.780186,181.44582 C571.811146,181.291022 571.780186,181.198142 571.625387,181.136223 C571.377709,181.012384 571.099071,180.919505 570.820433,180.888545 C570.448916,180.826625 570.448916,180.826625 570.448916,180.455108 C570.448916,179.928793 570.448916,179.928793 569.922601,179.928793 L569.705882,179.928793 C569.489164,179.928793 569.427245,179.959752 569.427245,180.20743 L569.427245,180.547988 C569.427245,180.888545 569.427245,180.857585 569.117647,180.981424 C568.343653,181.229102 567.910217,181.755418 567.848297,182.560372 C567.817337,183.272446 568.188854,183.767802 568.77709,184.108359 C569.148607,184.325077 569.551084,184.479876 569.922601,184.634675 C570.077399,184.696594 570.232198,184.789474 570.325077,184.851393 C570.696594,185.160991 570.634675,185.687307 570.201238,185.873065 C569.95356,185.965944 569.705882,185.996904 569.458204,185.965944 C569.086687,185.904025 568.684211,185.811146 568.343653,185.625387 C568.126935,185.532508 568.065015,185.563467 568.003096,185.780186 C567.941176,185.965944 567.910217,186.182663 567.848297,186.368421 C567.786378,186.647059 567.817337,186.708978 568.065015,186.832817 C568.405573,186.987616 568.74613,187.049536 569.086687,187.111455 C569.365325,187.142415 569.365325,187.173375 569.365325,187.452012 L569.365325,187.854489 C569.365325,188.009288 569.458204,188.102167 569.613003,188.102167 L570.170279,188.102167 C570.325077,188.102167 570.417957,188.009288 570.417957,187.854489 L570.417957,187.328173 C570.417957,187.142415 570.479876,187.080495 570.665635,187.018576 C571.068111,186.894737 571.408669,186.678019 571.656347,186.368421 Z" id="Shape"></path>
        </g>
    </g>
</svg>